solid OpenSCAD_Model
  facet normal -1 0 0
    outer loop
      vertex -34 -165 3
      vertex -34 -3 66
      vertex -34 -3 3
    endloop
  endfacet
  facet normal -1 -0 0
    outer loop
      vertex -34 -3 66
      vertex -34 -165 3
      vertex -34 -165 66
    endloop
  endfacet
  facet normal -0 0 1
    outer loop
      vertex -31 -3 6
      vertex 31 -165 6
      vertex 31 -3 6
    endloop
  endfacet
  facet normal 0 0 1
    outer loop
      vertex 31 -165 6
      vertex -31 -3 6
      vertex -31 -165 6
    endloop
  endfacet
  facet normal 1 -0 0
    outer loop
      vertex 34 -165 66
      vertex 34 -3 3
      vertex 34 -3 66
    endloop
  endfacet
  facet normal 1 0 0
    outer loop
      vertex 34 -3 3
      vertex 34 -165 66
      vertex 34 -165 3
    endloop
  endfacet
  facet normal 0 1 0
    outer loop
      vertex 44.5555 0 34.4135
      vertex 52 0 74.7
      vertex 44.8494 0 34.5706
    endloop
  endfacet
  facet normal 0 1 0
    outer loop
      vertex -52 0 74.7
      vertex -45.1683 0 34.6673
      vertex -45.5 0 34.7
    endloop
  endfacet
  facet normal 0 1 0
    outer loop
      vertex 44.2979 0 34.2021
      vertex 52 0 74.7
      vertex 44.5555 0 34.4135
    endloop
  endfacet
  facet normal 0 1 0
    outer loop
      vertex -52 0 74.7
      vertex -44.8494 0 34.5706
      vertex -45.1683 0 34.6673
    endloop
  endfacet
  facet normal 0 1 0
    outer loop
      vertex 44.0865 0 33.9445
      vertex 52 0 74.7
      vertex 44.2979 0 34.2021
    endloop
  endfacet
  facet normal 0 1 0
    outer loop
      vertex -52 0 74.7
      vertex -44.5555 0 34.4135
      vertex -44.8494 0 34.5706
    endloop
  endfacet
  facet normal 0 1 0
    outer loop
      vertex 52 0 74.7
      vertex 44.0865 0 33.9445
      vertex -52 0 74.7
    endloop
  endfacet
  facet normal 0 1 0
    outer loop
      vertex -52 0 74.7
      vertex -44.2979 0 34.2021
      vertex -44.5555 0 34.4135
    endloop
  endfacet
  facet normal 0 1 -0
    outer loop
      vertex -44.0865 0 33.9445
      vertex -52 0 74.7
      vertex 44.0865 0 33.9445
    endloop
  endfacet
  facet normal 0 1 0
    outer loop
      vertex -52 0 74.7
      vertex -44.0865 0 33.9445
      vertex -44.2979 0 34.2021
    endloop
  endfacet
  facet normal 0 1 -0
    outer loop
      vertex 43.9294 0 33.6506
      vertex -44.0865 0 33.9445
      vertex 44.0865 0 33.9445
    endloop
  endfacet
  facet normal 0 1 0
    outer loop
      vertex 43.9294 0 33.6506
      vertex -43.9294 0 33.6506
      vertex -44.0865 0 33.9445
    endloop
  endfacet
  facet normal 0 1 -0
    outer loop
      vertex 43.8327 0 33.3317
      vertex -43.9294 0 33.6506
      vertex 43.9294 0 33.6506
    endloop
  endfacet
  facet normal 0 1 0
    outer loop
      vertex 43.8327 0 33.3317
      vertex -43.8327 0 33.3317
      vertex -43.9294 0 33.6506
    endloop
  endfacet
  facet normal 0 1 -0
    outer loop
      vertex 43.8 0 33
      vertex -43.8327 0 33.3317
      vertex 43.8327 0 33.3317
    endloop
  endfacet
  facet normal 0 1 0
    outer loop
      vertex 43.8 0 33
      vertex -43.8 0 33
      vertex -43.8327 0 33.3317
    endloop
  endfacet
  facet normal 0 1 0
    outer loop
      vertex 43.8327 0 32.6683
      vertex -43.8 0 33
      vertex 43.8 0 33
    endloop
  endfacet
  facet normal 0 1 0
    outer loop
      vertex 43.8327 0 32.6683
      vertex -43.8327 0 32.6683
      vertex -43.8 0 33
    endloop
  endfacet
  facet normal 0 1 0
    outer loop
      vertex 43.9294 0 32.3494
      vertex -43.8327 0 32.6683
      vertex 43.8327 0 32.6683
    endloop
  endfacet
  facet normal 0 1 0
    outer loop
      vertex 43.9294 0 32.3494
      vertex -43.9294 0 32.3494
      vertex -43.8327 0 32.6683
    endloop
  endfacet
  facet normal 0 1 0
    outer loop
      vertex 44.0865 0 32.0555
      vertex -43.9294 0 32.3494
      vertex 43.9294 0 32.3494
    endloop
  endfacet
  facet normal 0 1 0
    outer loop
      vertex 44.0865 0 32.0555
      vertex -44.0865 0 32.0555
      vertex -43.9294 0 32.3494
    endloop
  endfacet
  facet normal 0 1 0
    outer loop
      vertex 52 0 3
      vertex 44.0865 0 32.0555
      vertex 44.2979 0 31.7979
    endloop
  endfacet
  facet normal 0 1 0
    outer loop
      vertex 44.0865 0 32.0555
      vertex 52 0 3
      vertex -44.0865 0 32.0555
    endloop
  endfacet
  facet normal 0 1 0
    outer loop
      vertex 52 0 3
      vertex 44.2979 0 31.7979
      vertex 44.5555 0 31.5865
    endloop
  endfacet
  facet normal 0 1 0
    outer loop
      vertex -52 0 3
      vertex -44.0865 0 32.0555
      vertex 52 0 3
    endloop
  endfacet
  facet normal 0 1 0
    outer loop
      vertex 52 0 3
      vertex 44.5555 0 31.5865
      vertex 44.8494 0 31.4294
    endloop
  endfacet
  facet normal 0 1 0
    outer loop
      vertex -44.0865 0 32.0555
      vertex -52 0 3
      vertex -44.2979 0 31.7979
    endloop
  endfacet
  facet normal 0 1 0
    outer loop
      vertex 52 0 3
      vertex 44.8494 0 31.4294
      vertex 45.1683 0 31.3327
    endloop
  endfacet
  facet normal 0 1 0
    outer loop
      vertex -44.2979 0 31.7979
      vertex -52 0 3
      vertex -44.5555 0 31.5865
    endloop
  endfacet
  facet normal 0 1 0
    outer loop
      vertex 52 0 3
      vertex 45.1683 0 31.3327
      vertex 45.5 0 31.3
    endloop
  endfacet
  facet normal 0 1 0
    outer loop
      vertex -44.5555 0 31.5865
      vertex -52 0 3
      vertex -44.8494 0 31.4294
    endloop
  endfacet
  facet normal 0 1 0
    outer loop
      vertex 45.1683 0 34.6673
      vertex 52 0 74.7
      vertex 45.5 0 34.7
    endloop
  endfacet
  facet normal 0 1 0
    outer loop
      vertex 52 0 74.7
      vertex 45.8317 0 34.6673
      vertex 45.5 0 34.7
    endloop
  endfacet
  facet normal 0 1 0
    outer loop
      vertex 52 0 74.7
      vertex 46.1506 0 34.5706
      vertex 45.8317 0 34.6673
    endloop
  endfacet
  facet normal 0 1 0
    outer loop
      vertex 52 0 74.7
      vertex 46.4445 0 34.4135
      vertex 46.1506 0 34.5706
    endloop
  endfacet
  facet normal 0 1 0
    outer loop
      vertex 52 0 74.7
      vertex 46.7021 0 34.2021
      vertex 46.4445 0 34.4135
    endloop
  endfacet
  facet normal 0 1 0
    outer loop
      vertex 52 0 74.7
      vertex 46.9135 0 33.9445
      vertex 46.7021 0 34.2021
    endloop
  endfacet
  facet normal 0 1 0
    outer loop
      vertex 52 0 74.7
      vertex 47.0706 0 33.6506
      vertex 46.9135 0 33.9445
    endloop
  endfacet
  facet normal 0 1 0
    outer loop
      vertex 52 0 74.7
      vertex 47.1673 0 33.3317
      vertex 47.0706 0 33.6506
    endloop
  endfacet
  facet normal 0 1 0
    outer loop
      vertex 52 0 74.7
      vertex 47.2 0 33
      vertex 47.1673 0 33.3317
    endloop
  endfacet
  facet normal 0 1 -0
    outer loop
      vertex 52 0 3
      vertex 47.2 0 33
      vertex 52 0 74.7
    endloop
  endfacet
  facet normal 0 1 0
    outer loop
      vertex -44.8494 0 31.4294
      vertex -52 0 3
      vertex -45.1683 0 31.3327
    endloop
  endfacet
  facet normal 0 1 0
    outer loop
      vertex 45.8317 0 31.3327
      vertex 52 0 3
      vertex 45.5 0 31.3
    endloop
  endfacet
  facet normal 0 1 0
    outer loop
      vertex 46.1506 0 31.4294
      vertex 52 0 3
      vertex 45.8317 0 31.3327
    endloop
  endfacet
  facet normal 0 1 0
    outer loop
      vertex 46.4445 0 31.5865
      vertex 52 0 3
      vertex 46.1506 0 31.4294
    endloop
  endfacet
  facet normal 0 1 0
    outer loop
      vertex 46.7021 0 31.7979
      vertex 52 0 3
      vertex 46.4445 0 31.5865
    endloop
  endfacet
  facet normal 0 1 0
    outer loop
      vertex 46.9135 0 32.0555
      vertex 52 0 3
      vertex 46.7021 0 31.7979
    endloop
  endfacet
  facet normal 0 1 0
    outer loop
      vertex 47.0706 0 32.3494
      vertex 52 0 3
      vertex 46.9135 0 32.0555
    endloop
  endfacet
  facet normal 0 1 0
    outer loop
      vertex 47.1673 0 32.6683
      vertex 52 0 3
      vertex 47.0706 0 32.3494
    endloop
  endfacet
  facet normal 0 1 0
    outer loop
      vertex 47.2 0 33
      vertex 52 0 3
      vertex 47.1673 0 32.6683
    endloop
  endfacet
  facet normal 0 1 0
    outer loop
      vertex 44.8494 0 34.5706
      vertex 52 0 74.7
      vertex 45.1683 0 34.6673
    endloop
  endfacet
  facet normal 0 1 -0
    outer loop
      vertex -45.8317 0 34.6673
      vertex -52 0 74.7
      vertex -45.5 0 34.7
    endloop
  endfacet
  facet normal 0 1 -0
    outer loop
      vertex -46.1506 0 34.5706
      vertex -52 0 74.7
      vertex -45.8317 0 34.6673
    endloop
  endfacet
  facet normal 0 1 -0
    outer loop
      vertex -46.4445 0 34.4135
      vertex -52 0 74.7
      vertex -46.1506 0 34.5706
    endloop
  endfacet
  facet normal 0 1 -0
    outer loop
      vertex -46.7021 0 34.2021
      vertex -52 0 74.7
      vertex -46.4445 0 34.4135
    endloop
  endfacet
  facet normal 0 1 -0
    outer loop
      vertex -46.9135 0 33.9445
      vertex -52 0 74.7
      vertex -46.7021 0 34.2021
    endloop
  endfacet
  facet normal 0 1 -0
    outer loop
      vertex -47.0706 0 33.6506
      vertex -52 0 74.7
      vertex -46.9135 0 33.9445
    endloop
  endfacet
  facet normal 0 1 -0
    outer loop
      vertex -47.1673 0 33.3317
      vertex -52 0 74.7
      vertex -47.0706 0 33.6506
    endloop
  endfacet
  facet normal 0 1 -0
    outer loop
      vertex -47.2 0 33
      vertex -52 0 74.7
      vertex -47.1673 0 33.3317
    endloop
  endfacet
  facet normal 0 1 0
    outer loop
      vertex -52 0 3
      vertex -47.2 0 33
      vertex -47.1673 0 32.6683
    endloop
  endfacet
  facet normal 0 1 0
    outer loop
      vertex -45.1683 0 31.3327
      vertex -52 0 3
      vertex -45.5 0 31.3
    endloop
  endfacet
  facet normal 0 1 0
    outer loop
      vertex -47.2 0 33
      vertex -52 0 3
      vertex -52 0 74.7
    endloop
  endfacet
  facet normal 0 1 0
    outer loop
      vertex -47.0706 0 32.3494
      vertex -52 0 3
      vertex -47.1673 0 32.6683
    endloop
  endfacet
  facet normal 0 1 0
    outer loop
      vertex -46.9135 0 32.0555
      vertex -52 0 3
      vertex -47.0706 0 32.3494
    endloop
  endfacet
  facet normal 0 1 0
    outer loop
      vertex -46.7021 0 31.7979
      vertex -52 0 3
      vertex -46.9135 0 32.0555
    endloop
  endfacet
  facet normal 0 1 0
    outer loop
      vertex -46.4445 0 31.5865
      vertex -52 0 3
      vertex -46.7021 0 31.7979
    endloop
  endfacet
  facet normal 0 1 0
    outer loop
      vertex -46.1506 0 31.4294
      vertex -52 0 3
      vertex -46.4445 0 31.5865
    endloop
  endfacet
  facet normal 0 1 0
    outer loop
      vertex -45.8317 0 31.3327
      vertex -52 0 3
      vertex -46.1506 0 31.4294
    endloop
  endfacet
  facet normal 0 1 0
    outer loop
      vertex -45.5 0 31.3
      vertex -52 0 3
      vertex -45.8317 0 31.3327
    endloop
  endfacet
  facet normal 0 0 -1
    outer loop
      vertex 34 -165 3
      vertex -34 -165 3
      vertex 34 -3 3
    endloop
  endfacet
  facet normal 0 0 -1
    outer loop
      vertex 34 -3 3
      vertex 52 0 3
      vertex 52 -3 3
    endloop
  endfacet
  facet normal 0 0 -1
    outer loop
      vertex -34 -3 3
      vertex 34 -3 3
      vertex -34 -165 3
    endloop
  endfacet
  facet normal 0 0 -1
    outer loop
      vertex -34 -3 3
      vertex 52 0 3
      vertex 34 -3 3
    endloop
  endfacet
  facet normal 0 0 -1
    outer loop
      vertex -52 0 3
      vertex -34 -3 3
      vertex -52 -3 3
    endloop
  endfacet
  facet normal 0 0 -1
    outer loop
      vertex -34 -3 3
      vertex -52 0 3
      vertex 52 0 3
    endloop
  endfacet
  facet normal 0 -1 0
    outer loop
      vertex -34 -165 66
      vertex -31 -165 6
      vertex -31 -165 66
    endloop
  endfacet
  facet normal 0 -1 -0
    outer loop
      vertex -31 -165 6
      vertex -34 -165 3
      vertex 31 -165 6
    endloop
  endfacet
  facet normal 0 -1 0
    outer loop
      vertex -34 -165 3
      vertex -31 -165 6
      vertex -34 -165 66
    endloop
  endfacet
  facet normal 0 -1 0
    outer loop
      vertex 31 -165 6
      vertex 34 -165 66
      vertex 31 -165 66
    endloop
  endfacet
  facet normal 0 -1 0
    outer loop
      vertex 31 -165 6
      vertex 34 -165 3
      vertex 34 -165 66
    endloop
  endfacet
  facet normal 0 -1 0
    outer loop
      vertex 34 -165 3
      vertex 31 -165 6
      vertex -34 -165 3
    endloop
  endfacet
  facet normal -0 0 1
    outer loop
      vertex -34 -3 66
      vertex -31 -165 66
      vertex -31 -3 66
    endloop
  endfacet
  facet normal 0 0 1
    outer loop
      vertex -31 -165 66
      vertex -34 -3 66
      vertex -34 -165 66
    endloop
  endfacet
  facet normal 1 -0 0
    outer loop
      vertex -31 -165 66
      vertex -31 -3 6
      vertex -31 -3 66
    endloop
  endfacet
  facet normal 1 0 0
    outer loop
      vertex -31 -3 6
      vertex -31 -165 66
      vertex -31 -165 6
    endloop
  endfacet
  facet normal -1 0 0
    outer loop
      vertex 31 -165 6
      vertex 31 -3 66
      vertex 31 -3 6
    endloop
  endfacet
  facet normal -1 -0 0
    outer loop
      vertex 31 -3 66
      vertex 31 -165 6
      vertex 31 -165 66
    endloop
  endfacet
  facet normal -0 0 1
    outer loop
      vertex 31 -3 66
      vertex 34 -165 66
      vertex 34 -3 66
    endloop
  endfacet
  facet normal 0 0 1
    outer loop
      vertex 34 -165 66
      vertex 31 -3 66
      vertex 31 -165 66
    endloop
  endfacet
  facet normal -1 0 0
    outer loop
      vertex -52 -3 3
      vertex -52 0 74.7
      vertex -52 0 3
    endloop
  endfacet
  facet normal -1 -0 0
    outer loop
      vertex -52 0 74.7
      vertex -52 -3 3
      vertex -52 -3 74.7
    endloop
  endfacet
  facet normal -0 0 1
    outer loop
      vertex -52 0 74.7
      vertex 52 -3 74.7
      vertex 52 0 74.7
    endloop
  endfacet
  facet normal 0 0 1
    outer loop
      vertex 52 -3 74.7
      vertex -52 0 74.7
      vertex -52 -3 74.7
    endloop
  endfacet
  facet normal 1 -0 0
    outer loop
      vertex 52 -3 74.7
      vertex 52 0 3
      vertex 52 0 74.7
    endloop
  endfacet
  facet normal 1 0 0
    outer loop
      vertex 52 0 3
      vertex 52 -3 74.7
      vertex 52 -3 3
    endloop
  endfacet
  facet normal 0 -1 0
    outer loop
      vertex 34 -3 66
      vertex 45.1683 -3 34.6673
      vertex 45.5 -3 34.7
    endloop
  endfacet
  facet normal 0 -1 0
    outer loop
      vertex 34 -3 66
      vertex 44.8494 -3 34.5706
      vertex 45.1683 -3 34.6673
    endloop
  endfacet
  facet normal 0 -1 0
    outer loop
      vertex 34 -3 66
      vertex 44.5555 -3 34.4135
      vertex 44.8494 -3 34.5706
    endloop
  endfacet
  facet normal 0 -1 0
    outer loop
      vertex 34 -3 66
      vertex 44.2979 -3 34.2021
      vertex 44.5555 -3 34.4135
    endloop
  endfacet
  facet normal 0 -1 0
    outer loop
      vertex 34 -3 66
      vertex 44.0865 -3 33.9445
      vertex 44.2979 -3 34.2021
    endloop
  endfacet
  facet normal 0 -1 0
    outer loop
      vertex 34 -3 66
      vertex 43.9294 -3 33.6506
      vertex 44.0865 -3 33.9445
    endloop
  endfacet
  facet normal 0 -1 0
    outer loop
      vertex 34 -3 66
      vertex 43.8327 -3 33.3317
      vertex 43.9294 -3 33.6506
    endloop
  endfacet
  facet normal 0 -1 0
    outer loop
      vertex 34 -3 66
      vertex 43.8 -3 33
      vertex 43.8327 -3 33.3317
    endloop
  endfacet
  facet normal 0 -1 0
    outer loop
      vertex 34 -3 3
      vertex 43.8 -3 33
      vertex 34 -3 66
    endloop
  endfacet
  facet normal 0 -1 0
    outer loop
      vertex 52 -3 3
      vertex 45.1683 -3 31.3327
      vertex 34 -3 3
    endloop
  endfacet
  facet normal 0 -1 -0
    outer loop
      vertex 44.8494 -3 31.4294
      vertex 34 -3 3
      vertex 45.1683 -3 31.3327
    endloop
  endfacet
  facet normal 0 -1 -0
    outer loop
      vertex 44.5555 -3 31.5865
      vertex 34 -3 3
      vertex 44.8494 -3 31.4294
    endloop
  endfacet
  facet normal 0 -1 -0
    outer loop
      vertex 44.2979 -3 31.7979
      vertex 34 -3 3
      vertex 44.5555 -3 31.5865
    endloop
  endfacet
  facet normal 0 -1 -0
    outer loop
      vertex 44.0865 -3 32.0555
      vertex 34 -3 3
      vertex 44.2979 -3 31.7979
    endloop
  endfacet
  facet normal 0 -1 -0
    outer loop
      vertex 43.9294 -3 32.3494
      vertex 34 -3 3
      vertex 44.0865 -3 32.0555
    endloop
  endfacet
  facet normal 0 -1 -0
    outer loop
      vertex 43.8327 -3 32.6683
      vertex 34 -3 3
      vertex 43.9294 -3 32.3494
    endloop
  endfacet
  facet normal 0 -1 -0
    outer loop
      vertex 43.8 -3 33
      vertex 34 -3 3
      vertex 43.8327 -3 32.6683
    endloop
  endfacet
  facet normal 0 -1 0
    outer loop
      vertex -31 -3 6
      vertex 31 -3 66
      vertex -31 -3 66
    endloop
  endfacet
  facet normal 0 -1 -0
    outer loop
      vertex 31 -3 66
      vertex -31 -3 6
      vertex 31 -3 6
    endloop
  endfacet
  facet normal 0 -1 0
    outer loop
      vertex -31 -3 66
      vertex -52 -3 74.7
      vertex -34 -3 66
    endloop
  endfacet
  facet normal 0 -1 0
    outer loop
      vertex -45.8317 -3 34.6673
      vertex -34 -3 66
      vertex -52 -3 74.7
    endloop
  endfacet
  facet normal 0 -1 0
    outer loop
      vertex -34 -3 66
      vertex -45.8317 -3 34.6673
      vertex -45.5 -3 34.7
    endloop
  endfacet
  facet normal 0 -1 0
    outer loop
      vertex -52 -3 74.7
      vertex -46.1506 -3 34.5706
      vertex -45.8317 -3 34.6673
    endloop
  endfacet
  facet normal 0 -1 0
    outer loop
      vertex -52 -3 74.7
      vertex -46.4445 -3 34.4135
      vertex -46.1506 -3 34.5706
    endloop
  endfacet
  facet normal 0 -1 0
    outer loop
      vertex -52 -3 74.7
      vertex -46.7021 -3 34.2021
      vertex -46.4445 -3 34.4135
    endloop
  endfacet
  facet normal 0 -1 0
    outer loop
      vertex -52 -3 74.7
      vertex -46.9135 -3 33.9445
      vertex -46.7021 -3 34.2021
    endloop
  endfacet
  facet normal 0 -1 0
    outer loop
      vertex -52 -3 74.7
      vertex -47.0706 -3 33.6506
      vertex -46.9135 -3 33.9445
    endloop
  endfacet
  facet normal 0 -1 0
    outer loop
      vertex -52 -3 74.7
      vertex -47.1673 -3 33.3317
      vertex -47.0706 -3 33.6506
    endloop
  endfacet
  facet normal 0 -1 0
    outer loop
      vertex -52 -3 74.7
      vertex -47.2 -3 33
      vertex -47.1673 -3 33.3317
    endloop
  endfacet
  facet normal 0 -1 0
    outer loop
      vertex -52 -3 3
      vertex -47.2 -3 33
      vertex -52 -3 74.7
    endloop
  endfacet
  facet normal 0 -1 -0
    outer loop
      vertex -45.8317 -3 31.3327
      vertex -52 -3 3
      vertex -45.5 -3 31.3
    endloop
  endfacet
  facet normal 0 -1 -0
    outer loop
      vertex -46.1506 -3 31.4294
      vertex -52 -3 3
      vertex -45.8317 -3 31.3327
    endloop
  endfacet
  facet normal 0 -1 -0
    outer loop
      vertex -46.4445 -3 31.5865
      vertex -52 -3 3
      vertex -46.1506 -3 31.4294
    endloop
  endfacet
  facet normal 0 -1 -0
    outer loop
      vertex -46.7021 -3 31.7979
      vertex -52 -3 3
      vertex -46.4445 -3 31.5865
    endloop
  endfacet
  facet normal 0 -1 -0
    outer loop
      vertex -46.9135 -3 32.0555
      vertex -52 -3 3
      vertex -46.7021 -3 31.7979
    endloop
  endfacet
  facet normal 0 -1 -0
    outer loop
      vertex -47.0706 -3 32.3494
      vertex -52 -3 3
      vertex -46.9135 -3 32.0555
    endloop
  endfacet
  facet normal 0 -1 -0
    outer loop
      vertex -47.1673 -3 32.6683
      vertex -52 -3 3
      vertex -47.0706 -3 32.3494
    endloop
  endfacet
  facet normal 0 -1 -0
    outer loop
      vertex -47.2 -3 33
      vertex -52 -3 3
      vertex -47.1673 -3 32.6683
    endloop
  endfacet
  facet normal 0 -1 0
    outer loop
      vertex -52 -3 74.7
      vertex -31 -3 66
      vertex 52 -3 74.7
    endloop
  endfacet
  facet normal 0 -1 0
    outer loop
      vertex 31 -3 66
      vertex 52 -3 74.7
      vertex -31 -3 66
    endloop
  endfacet
  facet normal 0 -1 0
    outer loop
      vertex 34 -3 66
      vertex 52 -3 74.7
      vertex 31 -3 66
    endloop
  endfacet
  facet normal 0 -1 0
    outer loop
      vertex 45.8317 -3 34.6673
      vertex 34 -3 66
      vertex 45.5 -3 34.7
    endloop
  endfacet
  facet normal 0 -1 0
    outer loop
      vertex 34 -3 66
      vertex 45.8317 -3 34.6673
      vertex 52 -3 74.7
    endloop
  endfacet
  facet normal 0 -1 0
    outer loop
      vertex 46.1506 -3 34.5706
      vertex 52 -3 74.7
      vertex 45.8317 -3 34.6673
    endloop
  endfacet
  facet normal 0 -1 0
    outer loop
      vertex 46.4445 -3 34.4135
      vertex 52 -3 74.7
      vertex 46.1506 -3 34.5706
    endloop
  endfacet
  facet normal 0 -1 0
    outer loop
      vertex 46.7021 -3 34.2021
      vertex 52 -3 74.7
      vertex 46.4445 -3 34.4135
    endloop
  endfacet
  facet normal 0 -1 0
    outer loop
      vertex 46.9135 -3 33.9445
      vertex 52 -3 74.7
      vertex 46.7021 -3 34.2021
    endloop
  endfacet
  facet normal 0 -1 0
    outer loop
      vertex 47.0706 -3 33.6506
      vertex 52 -3 74.7
      vertex 46.9135 -3 33.9445
    endloop
  endfacet
  facet normal 0 -1 0
    outer loop
      vertex 47.1673 -3 33.3317
      vertex 52 -3 74.7
      vertex 47.0706 -3 33.6506
    endloop
  endfacet
  facet normal 0 -1 0
    outer loop
      vertex 47.2 -3 33
      vertex 52 -3 74.7
      vertex 47.1673 -3 33.3317
    endloop
  endfacet
  facet normal 0 -1 0
    outer loop
      vertex 52 -3 3
      vertex 47.2 -3 33
      vertex 47.1673 -3 32.6683
    endloop
  endfacet
  facet normal 0 -1 0
    outer loop
      vertex 45.1683 -3 31.3327
      vertex 52 -3 3
      vertex 45.5 -3 31.3
    endloop
  endfacet
  facet normal 0 -1 0
    outer loop
      vertex 45.5 -3 31.3
      vertex 52 -3 3
      vertex 45.8317 -3 31.3327
    endloop
  endfacet
  facet normal 0 -1 0
    outer loop
      vertex 45.8317 -3 31.3327
      vertex 52 -3 3
      vertex 46.1506 -3 31.4294
    endloop
  endfacet
  facet normal 0 -1 0
    outer loop
      vertex 46.1506 -3 31.4294
      vertex 52 -3 3
      vertex 46.4445 -3 31.5865
    endloop
  endfacet
  facet normal 0 -1 0
    outer loop
      vertex 46.4445 -3 31.5865
      vertex 52 -3 3
      vertex 46.7021 -3 31.7979
    endloop
  endfacet
  facet normal 0 -1 0
    outer loop
      vertex 46.7021 -3 31.7979
      vertex 52 -3 3
      vertex 46.9135 -3 32.0555
    endloop
  endfacet
  facet normal 0 -1 0
    outer loop
      vertex 47.2 -3 33
      vertex 52 -3 3
      vertex 52 -3 74.7
    endloop
  endfacet
  facet normal 0 -1 0
    outer loop
      vertex 47.0706 -3 32.3494
      vertex 52 -3 3
      vertex 47.1673 -3 32.6683
    endloop
  endfacet
  facet normal 0 -1 0
    outer loop
      vertex 46.9135 -3 32.0555
      vertex 52 -3 3
      vertex 47.0706 -3 32.3494
    endloop
  endfacet
  facet normal 0 -1 0
    outer loop
      vertex -45.1683 -3 34.6673
      vertex -34 -3 66
      vertex -45.5 -3 34.7
    endloop
  endfacet
  facet normal 0 -1 0
    outer loop
      vertex -44.8494 -3 34.5706
      vertex -34 -3 66
      vertex -45.1683 -3 34.6673
    endloop
  endfacet
  facet normal 0 -1 0
    outer loop
      vertex -44.5555 -3 34.4135
      vertex -34 -3 66
      vertex -44.8494 -3 34.5706
    endloop
  endfacet
  facet normal 0 -1 0
    outer loop
      vertex -44.2979 -3 34.2021
      vertex -34 -3 66
      vertex -44.5555 -3 34.4135
    endloop
  endfacet
  facet normal 0 -1 0
    outer loop
      vertex -44.0865 -3 33.9445
      vertex -34 -3 66
      vertex -44.2979 -3 34.2021
    endloop
  endfacet
  facet normal 0 -1 0
    outer loop
      vertex -43.9294 -3 33.6506
      vertex -34 -3 66
      vertex -44.0865 -3 33.9445
    endloop
  endfacet
  facet normal 0 -1 0
    outer loop
      vertex -43.8327 -3 33.3317
      vertex -34 -3 66
      vertex -43.9294 -3 33.6506
    endloop
  endfacet
  facet normal 0 -1 0
    outer loop
      vertex -43.8 -3 33
      vertex -34 -3 66
      vertex -43.8327 -3 33.3317
    endloop
  endfacet
  facet normal 0 -1 0
    outer loop
      vertex -34 -3 3
      vertex -43.8 -3 33
      vertex -43.8327 -3 32.6683
    endloop
  endfacet
  facet normal 0 -1 0
    outer loop
      vertex -52 -3 3
      vertex -45.1683 -3 31.3327
      vertex -45.5 -3 31.3
    endloop
  endfacet
  facet normal 0 -1 0
    outer loop
      vertex -34 -3 3
      vertex -45.1683 -3 31.3327
      vertex -52 -3 3
    endloop
  endfacet
  facet normal 0 -1 0
    outer loop
      vertex -45.1683 -3 31.3327
      vertex -34 -3 3
      vertex -44.8494 -3 31.4294
    endloop
  endfacet
  facet normal 0 -1 0
    outer loop
      vertex -44.8494 -3 31.4294
      vertex -34 -3 3
      vertex -44.5555 -3 31.5865
    endloop
  endfacet
  facet normal 0 -1 0
    outer loop
      vertex -44.5555 -3 31.5865
      vertex -34 -3 3
      vertex -44.2979 -3 31.7979
    endloop
  endfacet
  facet normal 0 -1 0
    outer loop
      vertex -44.2979 -3 31.7979
      vertex -34 -3 3
      vertex -44.0865 -3 32.0555
    endloop
  endfacet
  facet normal 0 -1 0
    outer loop
      vertex -44.0865 -3 32.0555
      vertex -34 -3 3
      vertex -43.9294 -3 32.3494
    endloop
  endfacet
  facet normal 0 -1 0
    outer loop
      vertex -43.9294 -3 32.3494
      vertex -34 -3 3
      vertex -43.8327 -3 32.6683
    endloop
  endfacet
  facet normal 0 -1 0
    outer loop
      vertex -43.8 -3 33
      vertex -34 -3 3
      vertex -34 -3 66
    endloop
  endfacet
  facet normal -0.995176 0 -0.0981075
    outer loop
      vertex -43.8 -3 33
      vertex -43.8327 0 33.3317
      vertex -43.8 0 33
    endloop
  endfacet
  facet normal -0.995176 -0 -0.0981075
    outer loop
      vertex -43.8327 0 33.3317
      vertex -43.8 -3 33
      vertex -43.8327 -3 33.3317
    endloop
  endfacet
  facet normal -0.956971 0 -0.290182
    outer loop
      vertex -43.8327 -3 33.3317
      vertex -43.9294 0 33.6506
      vertex -43.8327 0 33.3317
    endloop
  endfacet
  facet normal -0.956971 -0 -0.290182
    outer loop
      vertex -43.9294 0 33.6506
      vertex -43.8327 -3 33.3317
      vertex -43.9294 -3 33.6506
    endloop
  endfacet
  facet normal 0.0981075 -7.70012e-19 -0.995176
    outer loop
      vertex -45.8317 -3 34.6673
      vertex -45.5 0 34.7
      vertex -45.5 -3 34.7
    endloop
  endfacet
  facet normal 0.0981075 -7.70012e-19 -0.995176
    outer loop
      vertex -45.5 0 34.7
      vertex -45.8317 -3 34.6673
      vertex -45.8317 0 34.6673
    endloop
  endfacet
  facet normal -0.634381 1.62338e-18 -0.773021
    outer loop
      vertex -44.5555 -3 34.4135
      vertex -44.2979 0 34.2021
      vertex -44.2979 -3 34.2021
    endloop
  endfacet
  facet normal -0.634381 1.62338e-18 -0.773021
    outer loop
      vertex -44.2979 0 34.2021
      vertex -44.5555 -3 34.4135
      vertex -44.5555 0 34.4135
    endloop
  endfacet
  facet normal 0.773021 0 -0.634381
    outer loop
      vertex -46.7021 -3 34.2021
      vertex -46.9135 0 33.9445
      vertex -46.7021 0 34.2021
    endloop
  endfacet
  facet normal 0.773021 0 -0.634381
    outer loop
      vertex -46.9135 0 33.9445
      vertex -46.7021 -3 34.2021
      vertex -46.9135 -3 33.9445
    endloop
  endfacet
  facet normal 0.471413 -2.46376e-18 -0.881912
    outer loop
      vertex -46.4445 -3 34.4135
      vertex -46.1506 0 34.5706
      vertex -46.1506 -3 34.5706
    endloop
  endfacet
  facet normal 0.471413 -2.46376e-18 -0.881912
    outer loop
      vertex -46.1506 0 34.5706
      vertex -46.4445 -3 34.4135
      vertex -46.4445 0 34.4135
    endloop
  endfacet
  facet normal -0.881912 0 -0.471413
    outer loop
      vertex -43.9294 -3 33.6506
      vertex -44.0865 0 33.9445
      vertex -43.9294 0 33.6506
    endloop
  endfacet
  facet normal -0.881912 -0 -0.471413
    outer loop
      vertex -44.0865 0 33.9445
      vertex -43.9294 -3 33.6506
      vertex -44.0865 -3 33.9445
    endloop
  endfacet
  facet normal -0.290182 -4.64306e-19 -0.956971
    outer loop
      vertex -45.1683 -3 34.6673
      vertex -44.8494 0 34.5706
      vertex -44.8494 -3 34.5706
    endloop
  endfacet
  facet normal -0.290182 -4.64306e-19 -0.956971
    outer loop
      vertex -44.8494 0 34.5706
      vertex -45.1683 -3 34.6673
      vertex -45.1683 0 34.6673
    endloop
  endfacet
  facet normal -0.471413 2.46376e-18 -0.881912
    outer loop
      vertex -44.8494 -3 34.5706
      vertex -44.5555 0 34.4135
      vertex -44.5555 -3 34.4135
    endloop
  endfacet
  facet normal -0.471413 2.46376e-18 -0.881912
    outer loop
      vertex -44.5555 0 34.4135
      vertex -44.8494 -3 34.5706
      vertex -44.8494 0 34.5706
    endloop
  endfacet
  facet normal 0.956971 0 -0.290182
    outer loop
      vertex -47.0706 -3 33.6506
      vertex -47.1673 0 33.3317
      vertex -47.0706 0 33.6506
    endloop
  endfacet
  facet normal 0.956971 0 -0.290182
    outer loop
      vertex -47.1673 0 33.3317
      vertex -47.0706 -3 33.6506
      vertex -47.1673 -3 33.3317
    endloop
  endfacet
  facet normal 0.881912 0 -0.471413
    outer loop
      vertex -46.9135 -3 33.9445
      vertex -47.0706 0 33.6506
      vertex -46.9135 0 33.9445
    endloop
  endfacet
  facet normal 0.881912 0 -0.471413
    outer loop
      vertex -47.0706 0 33.6506
      vertex -46.9135 -3 33.9445
      vertex -47.0706 -3 33.6506
    endloop
  endfacet
  facet normal 0.290182 4.64306e-19 -0.956971
    outer loop
      vertex -46.1506 -3 34.5706
      vertex -45.8317 0 34.6673
      vertex -45.8317 -3 34.6673
    endloop
  endfacet
  facet normal 0.290182 4.64306e-19 -0.956971
    outer loop
      vertex -45.8317 0 34.6673
      vertex -46.1506 -3 34.5706
      vertex -46.1506 0 34.5706
    endloop
  endfacet
  facet normal -0.995176 0 0.0981075
    outer loop
      vertex -43.8327 -3 32.6683
      vertex -43.8 0 33
      vertex -43.8327 0 32.6683
    endloop
  endfacet
  facet normal -0.995176 0 0.0981075
    outer loop
      vertex -43.8 0 33
      vertex -43.8327 -3 32.6683
      vertex -43.8 -3 33
    endloop
  endfacet
  facet normal -0.290182 -1.45731e-18 0.956971
    outer loop
      vertex -45.1683 0 31.3327
      vertex -44.8494 -3 31.4294
      vertex -44.8494 0 31.4294
    endloop
  endfacet
  facet normal -0.290182 -1.45731e-18 0.956971
    outer loop
      vertex -44.8494 -3 31.4294
      vertex -45.1683 0 31.3327
      vertex -45.1683 -3 31.3327
    endloop
  endfacet
  facet normal -0.471413 -2.46376e-18 0.881912
    outer loop
      vertex -44.8494 0 31.4294
      vertex -44.5555 -3 31.5865
      vertex -44.5555 0 31.5865
    endloop
  endfacet
  facet normal -0.471413 -2.46376e-18 0.881912
    outer loop
      vertex -44.5555 -3 31.5865
      vertex -44.8494 0 31.4294
      vertex -44.8494 -3 31.4294
    endloop
  endfacet
  facet normal -0.773021 0 -0.634381
    outer loop
      vertex -44.0865 -3 33.9445
      vertex -44.2979 0 34.2021
      vertex -44.0865 0 33.9445
    endloop
  endfacet
  facet normal -0.773021 -0 -0.634381
    outer loop
      vertex -44.2979 0 34.2021
      vertex -44.0865 -3 33.9445
      vertex -44.2979 -3 34.2021
    endloop
  endfacet
  facet normal -0.0981075 7.70012e-19 -0.995176
    outer loop
      vertex -45.5 -3 34.7
      vertex -45.1683 0 34.6673
      vertex -45.1683 -3 34.6673
    endloop
  endfacet
  facet normal -0.0981075 7.70012e-19 -0.995176
    outer loop
      vertex -45.1683 0 34.6673
      vertex -45.5 -3 34.7
      vertex -45.5 0 34.7
    endloop
  endfacet
  facet normal 0.995176 0 -0.0981075
    outer loop
      vertex -47.1673 -3 33.3317
      vertex -47.2 0 33
      vertex -47.1673 0 33.3317
    endloop
  endfacet
  facet normal 0.995176 0 -0.0981075
    outer loop
      vertex -47.2 0 33
      vertex -47.1673 -3 33.3317
      vertex -47.2 -3 33
    endloop
  endfacet
  facet normal 0.995176 -0 0.0981075
    outer loop
      vertex -47.2 -3 33
      vertex -47.1673 0 32.6683
      vertex -47.2 0 33
    endloop
  endfacet
  facet normal 0.995176 0 0.0981075
    outer loop
      vertex -47.1673 0 32.6683
      vertex -47.2 -3 33
      vertex -47.1673 -3 32.6683
    endloop
  endfacet
  facet normal 0.634381 -1.62338e-18 -0.773021
    outer loop
      vertex -46.7021 -3 34.2021
      vertex -46.4445 0 34.4135
      vertex -46.4445 -3 34.4135
    endloop
  endfacet
  facet normal 0.634381 -1.62338e-18 -0.773021
    outer loop
      vertex -46.4445 0 34.4135
      vertex -46.7021 -3 34.2021
      vertex -46.7021 0 34.2021
    endloop
  endfacet
  facet normal -0.634381 -1.62338e-18 0.773021
    outer loop
      vertex -44.5555 0 31.5865
      vertex -44.2979 -3 31.7979
      vertex -44.2979 0 31.7979
    endloop
  endfacet
  facet normal -0.634381 -1.62338e-18 0.773021
    outer loop
      vertex -44.2979 -3 31.7979
      vertex -44.5555 0 31.5865
      vertex -44.5555 -3 31.5865
    endloop
  endfacet
  facet normal 0.471413 2.46376e-18 0.881912
    outer loop
      vertex -46.4445 0 31.5865
      vertex -46.1506 -3 31.4294
      vertex -46.1506 0 31.4294
    endloop
  endfacet
  facet normal 0.471413 2.46376e-18 0.881912
    outer loop
      vertex -46.1506 -3 31.4294
      vertex -46.4445 0 31.5865
      vertex -46.4445 -3 31.5865
    endloop
  endfacet
  facet normal 0.773021 -0 0.634381
    outer loop
      vertex -46.9135 -3 32.0555
      vertex -46.7021 0 31.7979
      vertex -46.9135 0 32.0555
    endloop
  endfacet
  facet normal 0.773021 0 0.634381
    outer loop
      vertex -46.7021 0 31.7979
      vertex -46.9135 -3 32.0555
      vertex -46.7021 -3 31.7979
    endloop
  endfacet
  facet normal 0.881912 -0 0.471413
    outer loop
      vertex -47.0706 -3 32.3494
      vertex -46.9135 0 32.0555
      vertex -47.0706 0 32.3494
    endloop
  endfacet
  facet normal 0.881912 0 0.471413
    outer loop
      vertex -46.9135 0 32.0555
      vertex -47.0706 -3 32.3494
      vertex -46.9135 -3 32.0555
    endloop
  endfacet
  facet normal 0.634381 1.62338e-18 0.773021
    outer loop
      vertex -46.7021 0 31.7979
      vertex -46.4445 -3 31.5865
      vertex -46.4445 0 31.5865
    endloop
  endfacet
  facet normal 0.634381 1.62338e-18 0.773021
    outer loop
      vertex -46.4445 -3 31.5865
      vertex -46.7021 0 31.7979
      vertex -46.7021 -3 31.7979
    endloop
  endfacet
  facet normal 0.956971 -0 0.290182
    outer loop
      vertex -47.1673 -3 32.6683
      vertex -47.0706 0 32.3494
      vertex -47.1673 0 32.6683
    endloop
  endfacet
  facet normal 0.956971 0 0.290182
    outer loop
      vertex -47.0706 0 32.3494
      vertex -47.1673 -3 32.6683
      vertex -47.0706 -3 32.3494
    endloop
  endfacet
  facet normal -0.0981075 3.46463e-19 0.995176
    outer loop
      vertex -45.5 0 31.3
      vertex -45.1683 -3 31.3327
      vertex -45.1683 0 31.3327
    endloop
  endfacet
  facet normal -0.0981075 3.46463e-19 0.995176
    outer loop
      vertex -45.1683 -3 31.3327
      vertex -45.5 0 31.3
      vertex -45.5 -3 31.3
    endloop
  endfacet
  facet normal -0.881912 0 0.471413
    outer loop
      vertex -44.0865 -3 32.0555
      vertex -43.9294 0 32.3494
      vertex -44.0865 0 32.0555
    endloop
  endfacet
  facet normal -0.881912 0 0.471413
    outer loop
      vertex -43.9294 0 32.3494
      vertex -44.0865 -3 32.0555
      vertex -43.9294 -3 32.3494
    endloop
  endfacet
  facet normal -0.956971 0 0.290182
    outer loop
      vertex -43.9294 -3 32.3494
      vertex -43.8327 0 32.6683
      vertex -43.9294 0 32.3494
    endloop
  endfacet
  facet normal -0.956971 0 0.290182
    outer loop
      vertex -43.8327 0 32.6683
      vertex -43.9294 -3 32.3494
      vertex -43.8327 -3 32.6683
    endloop
  endfacet
  facet normal -0.773021 0 0.634381
    outer loop
      vertex -44.2979 -3 31.7979
      vertex -44.0865 0 32.0555
      vertex -44.2979 0 31.7979
    endloop
  endfacet
  facet normal -0.773021 0 0.634381
    outer loop
      vertex -44.0865 0 32.0555
      vertex -44.2979 -3 31.7979
      vertex -44.0865 -3 32.0555
    endloop
  endfacet
  facet normal 0.290182 1.45731e-18 0.956971
    outer loop
      vertex -46.1506 0 31.4294
      vertex -45.8317 -3 31.3327
      vertex -45.8317 0 31.3327
    endloop
  endfacet
  facet normal 0.290182 1.45731e-18 0.956971
    outer loop
      vertex -45.8317 -3 31.3327
      vertex -46.1506 0 31.4294
      vertex -46.1506 -3 31.4294
    endloop
  endfacet
  facet normal 0.0981075 -3.46463e-19 0.995176
    outer loop
      vertex -45.8317 0 31.3327
      vertex -45.5 -3 31.3
      vertex -45.5 0 31.3
    endloop
  endfacet
  facet normal 0.0981075 -3.46463e-19 0.995176
    outer loop
      vertex -45.5 -3 31.3
      vertex -45.8317 0 31.3327
      vertex -45.8317 -3 31.3327
    endloop
  endfacet
  facet normal -0.995176 0 -0.0981075
    outer loop
      vertex 47.2 -3 33
      vertex 47.1673 0 33.3317
      vertex 47.2 0 33
    endloop
  endfacet
  facet normal -0.995176 -0 -0.0981075
    outer loop
      vertex 47.1673 0 33.3317
      vertex 47.2 -3 33
      vertex 47.1673 -3 33.3317
    endloop
  endfacet
  facet normal -0.956971 0 -0.290182
    outer loop
      vertex 47.1673 -3 33.3317
      vertex 47.0706 0 33.6506
      vertex 47.1673 0 33.3317
    endloop
  endfacet
  facet normal -0.956971 -0 -0.290182
    outer loop
      vertex 47.0706 0 33.6506
      vertex 47.1673 -3 33.3317
      vertex 47.0706 -3 33.6506
    endloop
  endfacet
  facet normal 0.0981075 -7.70012e-19 -0.995176
    outer loop
      vertex 45.1683 -3 34.6673
      vertex 45.5 0 34.7
      vertex 45.5 -3 34.7
    endloop
  endfacet
  facet normal 0.0981075 -7.70012e-19 -0.995176
    outer loop
      vertex 45.5 0 34.7
      vertex 45.1683 -3 34.6673
      vertex 45.1683 0 34.6673
    endloop
  endfacet
  facet normal -0.634381 1.62338e-18 -0.773021
    outer loop
      vertex 46.4445 -3 34.4135
      vertex 46.7021 0 34.2021
      vertex 46.7021 -3 34.2021
    endloop
  endfacet
  facet normal -0.634381 1.62338e-18 -0.773021
    outer loop
      vertex 46.7021 0 34.2021
      vertex 46.4445 -3 34.4135
      vertex 46.4445 0 34.4135
    endloop
  endfacet
  facet normal 0.471413 -2.46376e-18 -0.881912
    outer loop
      vertex 44.5555 -3 34.4135
      vertex 44.8494 0 34.5706
      vertex 44.8494 -3 34.5706
    endloop
  endfacet
  facet normal 0.471413 -2.46376e-18 -0.881912
    outer loop
      vertex 44.8494 0 34.5706
      vertex 44.5555 -3 34.4135
      vertex 44.5555 0 34.4135
    endloop
  endfacet
  facet normal -0.881912 0 -0.471413
    outer loop
      vertex 47.0706 -3 33.6506
      vertex 46.9135 0 33.9445
      vertex 47.0706 0 33.6506
    endloop
  endfacet
  facet normal -0.881912 -0 -0.471413
    outer loop
      vertex 46.9135 0 33.9445
      vertex 47.0706 -3 33.6506
      vertex 46.9135 -3 33.9445
    endloop
  endfacet
  facet normal -0.290182 -4.64306e-19 -0.956971
    outer loop
      vertex 45.8317 -3 34.6673
      vertex 46.1506 0 34.5706
      vertex 46.1506 -3 34.5706
    endloop
  endfacet
  facet normal -0.290182 -4.64306e-19 -0.956971
    outer loop
      vertex 46.1506 0 34.5706
      vertex 45.8317 -3 34.6673
      vertex 45.8317 0 34.6673
    endloop
  endfacet
  facet normal -0.471413 2.46376e-18 -0.881912
    outer loop
      vertex 46.1506 -3 34.5706
      vertex 46.4445 0 34.4135
      vertex 46.4445 -3 34.4135
    endloop
  endfacet
  facet normal -0.471413 2.46376e-18 -0.881912
    outer loop
      vertex 46.4445 0 34.4135
      vertex 46.1506 -3 34.5706
      vertex 46.1506 0 34.5706
    endloop
  endfacet
  facet normal 0.956971 0 -0.290182
    outer loop
      vertex 43.9294 -3 33.6506
      vertex 43.8327 0 33.3317
      vertex 43.9294 0 33.6506
    endloop
  endfacet
  facet normal 0.956971 0 -0.290182
    outer loop
      vertex 43.8327 0 33.3317
      vertex 43.9294 -3 33.6506
      vertex 43.8327 -3 33.3317
    endloop
  endfacet
  facet normal 0.881912 0 -0.471413
    outer loop
      vertex 44.0865 -3 33.9445
      vertex 43.9294 0 33.6506
      vertex 44.0865 0 33.9445
    endloop
  endfacet
  facet normal 0.881912 0 -0.471413
    outer loop
      vertex 43.9294 0 33.6506
      vertex 44.0865 -3 33.9445
      vertex 43.9294 -3 33.6506
    endloop
  endfacet
  facet normal 0.290182 4.64306e-19 -0.956971
    outer loop
      vertex 44.8494 -3 34.5706
      vertex 45.1683 0 34.6673
      vertex 45.1683 -3 34.6673
    endloop
  endfacet
  facet normal 0.290182 4.64306e-19 -0.956971
    outer loop
      vertex 45.1683 0 34.6673
      vertex 44.8494 -3 34.5706
      vertex 44.8494 0 34.5706
    endloop
  endfacet
  facet normal -0.995176 0 0.0981075
    outer loop
      vertex 47.1673 -3 32.6683
      vertex 47.2 0 33
      vertex 47.1673 0 32.6683
    endloop
  endfacet
  facet normal -0.995176 0 0.0981075
    outer loop
      vertex 47.2 0 33
      vertex 47.1673 -3 32.6683
      vertex 47.2 -3 33
    endloop
  endfacet
  facet normal -0.290182 -1.45731e-18 0.956971
    outer loop
      vertex 45.8317 0 31.3327
      vertex 46.1506 -3 31.4294
      vertex 46.1506 0 31.4294
    endloop
  endfacet
  facet normal -0.290182 -1.45731e-18 0.956971
    outer loop
      vertex 46.1506 -3 31.4294
      vertex 45.8317 0 31.3327
      vertex 45.8317 -3 31.3327
    endloop
  endfacet
  facet normal -0.471413 -2.46376e-18 0.881912
    outer loop
      vertex 46.1506 0 31.4294
      vertex 46.4445 -3 31.5865
      vertex 46.4445 0 31.5865
    endloop
  endfacet
  facet normal -0.471413 -2.46376e-18 0.881912
    outer loop
      vertex 46.4445 -3 31.5865
      vertex 46.1506 0 31.4294
      vertex 46.1506 -3 31.4294
    endloop
  endfacet
  facet normal -0.773021 0 -0.634381
    outer loop
      vertex 46.9135 -3 33.9445
      vertex 46.7021 0 34.2021
      vertex 46.9135 0 33.9445
    endloop
  endfacet
  facet normal -0.773021 -0 -0.634381
    outer loop
      vertex 46.7021 0 34.2021
      vertex 46.9135 -3 33.9445
      vertex 46.7021 -3 34.2021
    endloop
  endfacet
  facet normal -0.0981075 7.70012e-19 -0.995176
    outer loop
      vertex 45.5 -3 34.7
      vertex 45.8317 0 34.6673
      vertex 45.8317 -3 34.6673
    endloop
  endfacet
  facet normal -0.0981075 7.70012e-19 -0.995176
    outer loop
      vertex 45.8317 0 34.6673
      vertex 45.5 -3 34.7
      vertex 45.5 0 34.7
    endloop
  endfacet
  facet normal 0.995176 0 -0.0981075
    outer loop
      vertex 43.8327 -3 33.3317
      vertex 43.8 0 33
      vertex 43.8327 0 33.3317
    endloop
  endfacet
  facet normal 0.995176 0 -0.0981075
    outer loop
      vertex 43.8 0 33
      vertex 43.8327 -3 33.3317
      vertex 43.8 -3 33
    endloop
  endfacet
  facet normal 0.995176 -0 0.0981075
    outer loop
      vertex 43.8 -3 33
      vertex 43.8327 0 32.6683
      vertex 43.8 0 33
    endloop
  endfacet
  facet normal 0.995176 0 0.0981075
    outer loop
      vertex 43.8327 0 32.6683
      vertex 43.8 -3 33
      vertex 43.8327 -3 32.6683
    endloop
  endfacet
  facet normal 0.634381 -1.62338e-18 -0.773021
    outer loop
      vertex 44.2979 -3 34.2021
      vertex 44.5555 0 34.4135
      vertex 44.5555 -3 34.4135
    endloop
  endfacet
  facet normal 0.634381 -1.62338e-18 -0.773021
    outer loop
      vertex 44.5555 0 34.4135
      vertex 44.2979 -3 34.2021
      vertex 44.2979 0 34.2021
    endloop
  endfacet
  facet normal 0.773021 0 -0.634381
    outer loop
      vertex 44.2979 -3 34.2021
      vertex 44.0865 0 33.9445
      vertex 44.2979 0 34.2021
    endloop
  endfacet
  facet normal 0.773021 0 -0.634381
    outer loop
      vertex 44.0865 0 33.9445
      vertex 44.2979 -3 34.2021
      vertex 44.0865 -3 33.9445
    endloop
  endfacet
  facet normal -0.634381 -1.62338e-18 0.773021
    outer loop
      vertex 46.4445 0 31.5865
      vertex 46.7021 -3 31.7979
      vertex 46.7021 0 31.7979
    endloop
  endfacet
  facet normal -0.634381 -1.62338e-18 0.773021
    outer loop
      vertex 46.7021 -3 31.7979
      vertex 46.4445 0 31.5865
      vertex 46.4445 -3 31.5865
    endloop
  endfacet
  facet normal 0.471413 2.46376e-18 0.881912
    outer loop
      vertex 44.5555 0 31.5865
      vertex 44.8494 -3 31.4294
      vertex 44.8494 0 31.4294
    endloop
  endfacet
  facet normal 0.471413 2.46376e-18 0.881912
    outer loop
      vertex 44.8494 -3 31.4294
      vertex 44.5555 0 31.5865
      vertex 44.5555 -3 31.5865
    endloop
  endfacet
  facet normal 0.773021 -0 0.634381
    outer loop
      vertex 44.0865 -3 32.0555
      vertex 44.2979 0 31.7979
      vertex 44.0865 0 32.0555
    endloop
  endfacet
  facet normal 0.773021 0 0.634381
    outer loop
      vertex 44.2979 0 31.7979
      vertex 44.0865 -3 32.0555
      vertex 44.2979 -3 31.7979
    endloop
  endfacet
  facet normal 0.881912 -0 0.471413
    outer loop
      vertex 43.9294 -3 32.3494
      vertex 44.0865 0 32.0555
      vertex 43.9294 0 32.3494
    endloop
  endfacet
  facet normal 0.881912 0 0.471413
    outer loop
      vertex 44.0865 0 32.0555
      vertex 43.9294 -3 32.3494
      vertex 44.0865 -3 32.0555
    endloop
  endfacet
  facet normal 0.634381 1.62338e-18 0.773021
    outer loop
      vertex 44.2979 0 31.7979
      vertex 44.5555 -3 31.5865
      vertex 44.5555 0 31.5865
    endloop
  endfacet
  facet normal 0.634381 1.62338e-18 0.773021
    outer loop
      vertex 44.5555 -3 31.5865
      vertex 44.2979 0 31.7979
      vertex 44.2979 -3 31.7979
    endloop
  endfacet
  facet normal 0.956971 -0 0.290182
    outer loop
      vertex 43.8327 -3 32.6683
      vertex 43.9294 0 32.3494
      vertex 43.8327 0 32.6683
    endloop
  endfacet
  facet normal 0.956971 0 0.290182
    outer loop
      vertex 43.9294 0 32.3494
      vertex 43.8327 -3 32.6683
      vertex 43.9294 -3 32.3494
    endloop
  endfacet
  facet normal -0.0981075 3.46463e-19 0.995176
    outer loop
      vertex 45.5 0 31.3
      vertex 45.8317 -3 31.3327
      vertex 45.8317 0 31.3327
    endloop
  endfacet
  facet normal -0.0981075 3.46463e-19 0.995176
    outer loop
      vertex 45.8317 -3 31.3327
      vertex 45.5 0 31.3
      vertex 45.5 -3 31.3
    endloop
  endfacet
  facet normal -0.881912 0 0.471413
    outer loop
      vertex 46.9135 -3 32.0555
      vertex 47.0706 0 32.3494
      vertex 46.9135 0 32.0555
    endloop
  endfacet
  facet normal -0.881912 0 0.471413
    outer loop
      vertex 47.0706 0 32.3494
      vertex 46.9135 -3 32.0555
      vertex 47.0706 -3 32.3494
    endloop
  endfacet
  facet normal -0.956971 0 0.290182
    outer loop
      vertex 47.0706 -3 32.3494
      vertex 47.1673 0 32.6683
      vertex 47.0706 0 32.3494
    endloop
  endfacet
  facet normal -0.956971 0 0.290182
    outer loop
      vertex 47.1673 0 32.6683
      vertex 47.0706 -3 32.3494
      vertex 47.1673 -3 32.6683
    endloop
  endfacet
  facet normal -0.773021 0 0.634381
    outer loop
      vertex 46.7021 -3 31.7979
      vertex 46.9135 0 32.0555
      vertex 46.7021 0 31.7979
    endloop
  endfacet
  facet normal -0.773021 0 0.634381
    outer loop
      vertex 46.9135 0 32.0555
      vertex 46.7021 -3 31.7979
      vertex 46.9135 -3 32.0555
    endloop
  endfacet
  facet normal 0.290182 1.45731e-18 0.956971
    outer loop
      vertex 44.8494 0 31.4294
      vertex 45.1683 -3 31.3327
      vertex 45.1683 0 31.3327
    endloop
  endfacet
  facet normal 0.290182 1.45731e-18 0.956971
    outer loop
      vertex 45.1683 -3 31.3327
      vertex 44.8494 0 31.4294
      vertex 44.8494 -3 31.4294
    endloop
  endfacet
  facet normal 0.0981075 -3.46463e-19 0.995176
    outer loop
      vertex 45.1683 0 31.3327
      vertex 45.5 -3 31.3
      vertex 45.5 0 31.3
    endloop
  endfacet
  facet normal 0.0981075 -3.46463e-19 0.995176
    outer loop
      vertex 45.5 -3 31.3
      vertex 45.1683 0 31.3327
      vertex 45.1683 -3 31.3327
    endloop
  endfacet
endsolid OpenSCAD_Model
