solid OpenSCAD_Model
  facet normal -1 0 0
    outer loop
      vertex -22.25 -20.9 0
      vertex -22.25 26.8 2
      vertex -22.25 26.8 0
    endloop
  endfacet
  facet normal -1 -0 0
    outer loop
      vertex -22.25 26.8 2
      vertex -22.25 -20.9 0
      vertex -22.25 -20.9 2
    endloop
  endfacet
  facet normal 0 0 1
    outer loop
      vertex 22.25 26.8 2
      vertex 19.8 24.35 2
      vertex 22.25 -20.9 2
    endloop
  endfacet
  facet normal 0 0 1
    outer loop
      vertex 22.25 26.8 2
      vertex 18.6 24.35 2
      vertex 19.8 24.35 2
    endloop
  endfacet
  facet normal 0 0 1
    outer loop
      vertex 18.6 24.35 2
      vertex -18.6 24.35 2
      vertex 18.6 -19.55 2
    endloop
  endfacet
  facet normal 0 0 1
    outer loop
      vertex 22.25 26.8 2
      vertex -18.6 24.35 2
      vertex 18.6 24.35 2
    endloop
  endfacet
  facet normal -0 0 1
    outer loop
      vertex -22.25 26.8 2
      vertex -18.6 24.35 2
      vertex 22.25 26.8 2
    endloop
  endfacet
  facet normal 0 0 1
    outer loop
      vertex -22.25 -20.9 2
      vertex -19.8 24.35 2
      vertex -22.25 26.8 2
    endloop
  endfacet
  facet normal 0 0 1
    outer loop
      vertex -18.6 24.35 2
      vertex -22.25 26.8 2
      vertex -19.8 24.35 2
    endloop
  endfacet
  facet normal -0 0 1
    outer loop
      vertex 19.8 -20.75 2
      vertex 22.25 -20.9 2
      vertex 19.8 24.35 2
    endloop
  endfacet
  facet normal -0 0 1
    outer loop
      vertex -19.8 -20.75 2
      vertex 22.25 -20.9 2
      vertex 19.8 -20.75 2
    endloop
  endfacet
  facet normal 0 0 1
    outer loop
      vertex -19.8 -20.75 2
      vertex -22.25 -20.9 2
      vertex 22.25 -20.9 2
    endloop
  endfacet
  facet normal 0 0 1
    outer loop
      vertex -19.8 24.35 2
      vertex -22.25 -20.9 2
      vertex -19.8 -20.75 2
    endloop
  endfacet
  facet normal 0 0 1
    outer loop
      vertex 18.6 -19.55 2
      vertex -18.6 24.35 2
      vertex -18.6 -19.55 2
    endloop
  endfacet
  facet normal 1 -0 0
    outer loop
      vertex 22.25 -20.9 2
      vertex 22.25 26.8 0
      vertex 22.25 26.8 2
    endloop
  endfacet
  facet normal 1 0 0
    outer loop
      vertex 22.25 26.8 0
      vertex 22.25 -20.9 2
      vertex 22.25 -20.9 0
    endloop
  endfacet
  facet normal 0 0 -1
    outer loop
      vertex -22.25 -20.9 0
      vertex 22.25 26.8 0
      vertex 22.25 -20.9 0
    endloop
  endfacet
  facet normal -0 0 -1
    outer loop
      vertex 22.25 26.8 0
      vertex -22.25 -20.9 0
      vertex -22.25 26.8 0
    endloop
  endfacet
  facet normal 0 -1 0
    outer loop
      vertex -22.25 -20.9 0
      vertex 22.25 -20.9 2
      vertex -22.25 -20.9 2
    endloop
  endfacet
  facet normal 0 -1 -0
    outer loop
      vertex 22.25 -20.9 2
      vertex -22.25 -20.9 0
      vertex 22.25 -20.9 0
    endloop
  endfacet
  facet normal 0 1 -0
    outer loop
      vertex 22.25 26.8 0
      vertex -22.25 26.8 2
      vertex 22.25 26.8 2
    endloop
  endfacet
  facet normal 0 1 0
    outer loop
      vertex -22.25 26.8 2
      vertex 22.25 26.8 0
      vertex -22.25 26.8 0
    endloop
  endfacet
  facet normal -1 0 0
    outer loop
      vertex -19.8 -20.75 2
      vertex -19.8 24.35 6
      vertex -19.8 24.35 2
    endloop
  endfacet
  facet normal -1 -0 0
    outer loop
      vertex -19.8 24.35 6
      vertex -19.8 -20.75 2
      vertex -19.8 -20.75 6
    endloop
  endfacet
  facet normal 0 0 1
    outer loop
      vertex -18.6 24.35 6
      vertex -19.8 24.35 6
      vertex -18.6 -19.55 6
    endloop
  endfacet
  facet normal 0 0 1
    outer loop
      vertex 18.6 -19.55 6
      vertex 19.8 24.35 6
      vertex 18.6 24.35 6
    endloop
  endfacet
  facet normal 0 0 1
    outer loop
      vertex 19.8 24.35 6
      vertex 18.6 -19.55 6
      vertex 19.8 -20.75 6
    endloop
  endfacet
  facet normal -0 0 1
    outer loop
      vertex -18.6 -19.55 6
      vertex 19.8 -20.75 6
      vertex 18.6 -19.55 6
    endloop
  endfacet
  facet normal 0 0 1
    outer loop
      vertex -18.6 -19.55 6
      vertex -19.8 -20.75 6
      vertex 19.8 -20.75 6
    endloop
  endfacet
  facet normal 0 0 1
    outer loop
      vertex -19.8 -20.75 6
      vertex -18.6 -19.55 6
      vertex -19.8 24.35 6
    endloop
  endfacet
  facet normal 1 -0 0
    outer loop
      vertex -18.6 -19.55 6
      vertex -18.6 24.35 2
      vertex -18.6 24.35 6
    endloop
  endfacet
  facet normal 1 0 0
    outer loop
      vertex -18.6 24.35 2
      vertex -18.6 -19.55 6
      vertex -18.6 -19.55 2
    endloop
  endfacet
  facet normal 0 1 -0
    outer loop
      vertex -18.6 24.35 2
      vertex -19.8 24.35 6
      vertex -18.6 24.35 6
    endloop
  endfacet
  facet normal 0 1 0
    outer loop
      vertex -19.8 24.35 6
      vertex -18.6 24.35 2
      vertex -19.8 24.35 2
    endloop
  endfacet
  facet normal 0 -1 0
    outer loop
      vertex -19.8 -20.75 2
      vertex 19.8 -20.75 6
      vertex -19.8 -20.75 6
    endloop
  endfacet
  facet normal 0 -1 -0
    outer loop
      vertex 19.8 -20.75 6
      vertex -19.8 -20.75 2
      vertex 19.8 -20.75 2
    endloop
  endfacet
  facet normal -1 0 0
    outer loop
      vertex 18.6 -19.55 2
      vertex 18.6 24.35 6
      vertex 18.6 24.35 2
    endloop
  endfacet
  facet normal -1 -0 0
    outer loop
      vertex 18.6 24.35 6
      vertex 18.6 -19.55 2
      vertex 18.6 -19.55 6
    endloop
  endfacet
  facet normal 1 -0 0
    outer loop
      vertex 19.8 -20.75 6
      vertex 19.8 24.35 2
      vertex 19.8 24.35 6
    endloop
  endfacet
  facet normal 1 0 0
    outer loop
      vertex 19.8 24.35 2
      vertex 19.8 -20.75 6
      vertex 19.8 -20.75 2
    endloop
  endfacet
  facet normal 0 1 -0
    outer loop
      vertex 19.8 24.35 2
      vertex 18.6 24.35 6
      vertex 19.8 24.35 6
    endloop
  endfacet
  facet normal 0 1 0
    outer loop
      vertex 18.6 24.35 6
      vertex 19.8 24.35 2
      vertex 18.6 24.35 2
    endloop
  endfacet
  facet normal 0 1 -0
    outer loop
      vertex 18.6 -19.55 2
      vertex -18.6 -19.55 6
      vertex 18.6 -19.55 6
    endloop
  endfacet
  facet normal 0 1 0
    outer loop
      vertex -18.6 -19.55 6
      vertex 18.6 -19.55 2
      vertex -18.6 -19.55 2
    endloop
  endfacet
endsolid OpenSCAD_Model
