solid OpenSCAD_Model
  facet normal -1 0 0
    outer loop
      vertex -30 -20 0
      vertex -30 20 24
      vertex -30 20 0
    endloop
  endfacet
  facet normal -1 -0 0
    outer loop
      vertex -30 20 24
      vertex -30 -20 0
      vertex -30 -20 24
    endloop
  endfacet
  facet normal 0 0 1
    outer loop
      vertex 30 20 24
      vertex 28 18 24
      vertex 30 -20 24
    endloop
  endfacet
  facet normal 0 0 1
    outer loop
      vertex 30 20 24
      vertex -28 18 24
      vertex 28 18 24
    endloop
  endfacet
  facet normal 0 0 1
    outer loop
      vertex -28 18 24
      vertex -30 20 24
      vertex -28 -18 24
    endloop
  endfacet
  facet normal -0 0 1
    outer loop
      vertex -30 20 24
      vertex -28 18 24
      vertex 30 20 24
    endloop
  endfacet
  facet normal -0 0 1
    outer loop
      vertex 28 -18 24
      vertex 30 -20 24
      vertex 28 18 24
    endloop
  endfacet
  facet normal -0 0 1
    outer loop
      vertex -28 -18 24
      vertex 30 -20 24
      vertex 28 -18 24
    endloop
  endfacet
  facet normal 0 0 1
    outer loop
      vertex -28 -18 24
      vertex -30 -20 24
      vertex 30 -20 24
    endloop
  endfacet
  facet normal 0 0 1
    outer loop
      vertex -30 -20 24
      vertex -28 -18 24
      vertex -30 20 24
    endloop
  endfacet
  facet normal 1 -0 0
    outer loop
      vertex 30 -20 24
      vertex 30 20 0
      vertex 30 20 24
    endloop
  endfacet
  facet normal 1 0 0
    outer loop
      vertex 30 20 0
      vertex 30 -20 24
      vertex 30 -20 0
    endloop
  endfacet
  facet normal 0 1 -0
    outer loop
      vertex 30 20 0
      vertex -30 20 24
      vertex 30 20 24
    endloop
  endfacet
  facet normal 0 1 0
    outer loop
      vertex -30 20 24
      vertex 30 20 0
      vertex -30 20 0
    endloop
  endfacet
  facet normal 0 0 -1
    outer loop
      vertex -30 -20 0
      vertex 30 20 0
      vertex 30 -20 0
    endloop
  endfacet
  facet normal -0 0 -1
    outer loop
      vertex 30 20 0
      vertex -30 -20 0
      vertex -30 20 0
    endloop
  endfacet
  facet normal 0 -1 0
    outer loop
      vertex -30 -20 0
      vertex 30 -20 24
      vertex -30 -20 24
    endloop
  endfacet
  facet normal 0 -1 -0
    outer loop
      vertex 30 -20 24
      vertex -30 -20 0
      vertex 30 -20 0
    endloop
  endfacet
  facet normal 1 -0 0
    outer loop
      vertex -28 -18 24
      vertex -28 18 2
      vertex -28 18 24
    endloop
  endfacet
  facet normal 1 0 0
    outer loop
      vertex -28 18 2
      vertex -28 -18 24
      vertex -28 -18 2
    endloop
  endfacet
  facet normal -1 0 0
    outer loop
      vertex 28 -18 2
      vertex 28 18 24
      vertex 28 18 2
    endloop
  endfacet
  facet normal -1 -0 0
    outer loop
      vertex 28 18 24
      vertex 28 -18 2
      vertex 28 -18 24
    endloop
  endfacet
  facet normal -0 0 1
    outer loop
      vertex -28 18 2
      vertex 28 -18 2
      vertex 28 18 2
    endloop
  endfacet
  facet normal 0 0 1
    outer loop
      vertex 28 -18 2
      vertex -28 18 2
      vertex -28 -18 2
    endloop
  endfacet
  facet normal 0 1 -0
    outer loop
      vertex 28 -18 2
      vertex -28 -18 24
      vertex 28 -18 24
    endloop
  endfacet
  facet normal 0 1 0
    outer loop
      vertex -28 -18 24
      vertex 28 -18 2
      vertex -28 -18 2
    endloop
  endfacet
  facet normal 0 -1 0
    outer loop
      vertex -28 18 2
      vertex 28 18 24
      vertex -28 18 24
    endloop
  endfacet
  facet normal 0 -1 -0
    outer loop
      vertex 28 18 24
      vertex -28 18 2
      vertex 28 18 2
    endloop
  endfacet
endsolid OpenSCAD_Model
