solid OpenSCAD_Model
  facet normal -1 0 0
    outer loop
      vertex -34 165 3
      vertex -34 140 21
      vertex -34 165 66
    endloop
  endfacet
  facet normal -1 0 0
    outer loop
      vertex -34 165 3
      vertex -34 80 21
      vertex -34 140 21
    endloop
  endfacet
  facet normal -1 0 0
    outer loop
      vertex -34 3 66
      vertex -34 80 21
      vertex -34 3 3
    endloop
  endfacet
  facet normal -1 0 0
    outer loop
      vertex -34 3 3
      vertex -34 80 21
      vertex -34 165 3
    endloop
  endfacet
  facet normal -1 0 0
    outer loop
      vertex -34 140 56
      vertex -34 165 66
      vertex -34 140 21
    endloop
  endfacet
  facet normal -1 0 0
    outer loop
      vertex -34 80 56
      vertex -34 165 66
      vertex -34 140 56
    endloop
  endfacet
  facet normal -1 0 0
    outer loop
      vertex -34 80 56
      vertex -34 3 66
      vertex -34 165 66
    endloop
  endfacet
  facet normal -1 0 0
    outer loop
      vertex -34 80 21
      vertex -34 3 66
      vertex -34 80 56
    endloop
  endfacet
  facet normal -0 0 1
    outer loop
      vertex -31 165 6
      vertex 31 3 6
      vertex 31 165 6
    endloop
  endfacet
  facet normal 0 0 1
    outer loop
      vertex 31 3 6
      vertex -31 165 6
      vertex -31 3 6
    endloop
  endfacet
  facet normal 1 -0 0
    outer loop
      vertex 34 3 66
      vertex 34 165 3
      vertex 34 165 66
    endloop
  endfacet
  facet normal 1 0 0
    outer loop
      vertex 34 165 3
      vertex 34 3 66
      vertex 34 3 3
    endloop
  endfacet
  facet normal 0 0 -1
    outer loop
      vertex 45.7 0 3
      vertex 34 3 3
      vertex 45.7 3 3
    endloop
  endfacet
  facet normal 0 0 -1
    outer loop
      vertex 34 3 3
      vertex -34 3 3
      vertex 34 165 3
    endloop
  endfacet
  facet normal 0 0 -1
    outer loop
      vertex 45.7 0 3
      vertex -34 3 3
      vertex 34 3 3
    endloop
  endfacet
  facet normal 0 0 -1
    outer loop
      vertex -45.7 0 3
      vertex -34 3 3
      vertex 45.7 0 3
    endloop
  endfacet
  facet normal -0 0 -1
    outer loop
      vertex -34 3 3
      vertex -45.7 0 3
      vertex -45.7 3 3
    endloop
  endfacet
  facet normal -0 0 -1
    outer loop
      vertex 34 165 3
      vertex -34 3 3
      vertex -34 165 3
    endloop
  endfacet
  facet normal 0 -1 0
    outer loop
      vertex -40.0555 0 34.4135
      vertex -45.7 0 72.7
      vertex -40.3494 0 34.5706
    endloop
  endfacet
  facet normal 0 -1 0
    outer loop
      vertex 45.7 0 72.7
      vertex 40.6683 0 34.6673
      vertex 41 0 34.7
    endloop
  endfacet
  facet normal 0 -1 0
    outer loop
      vertex -39.7979 0 34.2021
      vertex -45.7 0 72.7
      vertex -40.0555 0 34.4135
    endloop
  endfacet
  facet normal 0 -1 0
    outer loop
      vertex 45.7 0 72.7
      vertex 40.3494 0 34.5706
      vertex 40.6683 0 34.6673
    endloop
  endfacet
  facet normal 0 -1 0
    outer loop
      vertex -39.5865 0 33.9445
      vertex -45.7 0 72.7
      vertex -39.7979 0 34.2021
    endloop
  endfacet
  facet normal 0 -1 0
    outer loop
      vertex 45.7 0 72.7
      vertex 40.0555 0 34.4135
      vertex 40.3494 0 34.5706
    endloop
  endfacet
  facet normal 0 -1 0
    outer loop
      vertex -45.7 0 72.7
      vertex -39.5865 0 33.9445
      vertex 45.7 0 72.7
    endloop
  endfacet
  facet normal 0 -1 0
    outer loop
      vertex 45.7 0 72.7
      vertex 39.7979 0 34.2021
      vertex 40.0555 0 34.4135
    endloop
  endfacet
  facet normal 0 -1 0
    outer loop
      vertex 39.5865 0 33.9445
      vertex 45.7 0 72.7
      vertex -39.5865 0 33.9445
    endloop
  endfacet
  facet normal 0 -1 0
    outer loop
      vertex 45.7 0 72.7
      vertex 39.5865 0 33.9445
      vertex 39.7979 0 34.2021
    endloop
  endfacet
  facet normal 0 -1 0
    outer loop
      vertex -39.4294 0 33.6506
      vertex 39.5865 0 33.9445
      vertex -39.5865 0 33.9445
    endloop
  endfacet
  facet normal 0 -1 0
    outer loop
      vertex -39.4294 0 33.6506
      vertex 39.4294 0 33.6506
      vertex 39.5865 0 33.9445
    endloop
  endfacet
  facet normal 0 -1 0
    outer loop
      vertex -39.3327 0 33.3317
      vertex 39.4294 0 33.6506
      vertex -39.4294 0 33.6506
    endloop
  endfacet
  facet normal 0 -1 0
    outer loop
      vertex -39.3327 0 33.3317
      vertex 39.3327 0 33.3317
      vertex 39.4294 0 33.6506
    endloop
  endfacet
  facet normal 0 -1 0
    outer loop
      vertex -39.3 0 33
      vertex 39.3327 0 33.3317
      vertex -39.3327 0 33.3317
    endloop
  endfacet
  facet normal 0 -1 0
    outer loop
      vertex -39.3 0 33
      vertex 39.3 0 33
      vertex 39.3327 0 33.3317
    endloop
  endfacet
  facet normal 0 -1 0
    outer loop
      vertex -39.3327 0 32.6683
      vertex 39.3 0 33
      vertex -39.3 0 33
    endloop
  endfacet
  facet normal 0 -1 0
    outer loop
      vertex -39.3327 0 32.6683
      vertex 39.3327 0 32.6683
      vertex 39.3 0 33
    endloop
  endfacet
  facet normal 0 -1 0
    outer loop
      vertex -39.4294 0 32.3494
      vertex 39.3327 0 32.6683
      vertex -39.3327 0 32.6683
    endloop
  endfacet
  facet normal 0 -1 0
    outer loop
      vertex -39.4294 0 32.3494
      vertex 39.4294 0 32.3494
      vertex 39.3327 0 32.6683
    endloop
  endfacet
  facet normal 0 -1 0
    outer loop
      vertex -39.5865 0 32.0555
      vertex 39.4294 0 32.3494
      vertex -39.4294 0 32.3494
    endloop
  endfacet
  facet normal 0 -1 0
    outer loop
      vertex -39.5865 0 32.0555
      vertex 39.5865 0 32.0555
      vertex 39.4294 0 32.3494
    endloop
  endfacet
  facet normal 0 -1 0
    outer loop
      vertex -45.7 0 3
      vertex -39.5865 0 32.0555
      vertex -39.7979 0 31.7979
    endloop
  endfacet
  facet normal 0 -1 -0
    outer loop
      vertex -39.5865 0 32.0555
      vertex -45.7 0 3
      vertex 39.5865 0 32.0555
    endloop
  endfacet
  facet normal 0 -1 0
    outer loop
      vertex -45.7 0 3
      vertex -39.7979 0 31.7979
      vertex -40.0555 0 31.5865
    endloop
  endfacet
  facet normal 0 -1 0
    outer loop
      vertex 45.7 0 3
      vertex 39.5865 0 32.0555
      vertex -45.7 0 3
    endloop
  endfacet
  facet normal 0 -1 0
    outer loop
      vertex -45.7 0 3
      vertex -40.0555 0 31.5865
      vertex -40.3494 0 31.4294
    endloop
  endfacet
  facet normal 0 -1 0
    outer loop
      vertex 39.5865 0 32.0555
      vertex 45.7 0 3
      vertex 39.7979 0 31.7979
    endloop
  endfacet
  facet normal 0 -1 0
    outer loop
      vertex -45.7 0 3
      vertex -40.3494 0 31.4294
      vertex -40.6683 0 31.3327
    endloop
  endfacet
  facet normal 0 -1 0
    outer loop
      vertex 39.7979 0 31.7979
      vertex 45.7 0 3
      vertex 40.0555 0 31.5865
    endloop
  endfacet
  facet normal 0 -1 0
    outer loop
      vertex -45.7 0 3
      vertex -40.6683 0 31.3327
      vertex -41 0 31.3
    endloop
  endfacet
  facet normal 0 -1 0
    outer loop
      vertex 40.0555 0 31.5865
      vertex 45.7 0 3
      vertex 40.3494 0 31.4294
    endloop
  endfacet
  facet normal 0 -1 0
    outer loop
      vertex -40.6683 0 34.6673
      vertex -45.7 0 72.7
      vertex -41 0 34.7
    endloop
  endfacet
  facet normal 0 -1 0
    outer loop
      vertex -45.7 0 72.7
      vertex -41.3317 0 34.6673
      vertex -41 0 34.7
    endloop
  endfacet
  facet normal 0 -1 0
    outer loop
      vertex -45.7 0 72.7
      vertex -41.6506 0 34.5706
      vertex -41.3317 0 34.6673
    endloop
  endfacet
  facet normal 0 -1 0
    outer loop
      vertex -45.7 0 72.7
      vertex -41.9445 0 34.4135
      vertex -41.6506 0 34.5706
    endloop
  endfacet
  facet normal 0 -1 0
    outer loop
      vertex -45.7 0 72.7
      vertex -42.2021 0 34.2021
      vertex -41.9445 0 34.4135
    endloop
  endfacet
  facet normal 0 -1 0
    outer loop
      vertex -45.7 0 72.7
      vertex -42.4135 0 33.9445
      vertex -42.2021 0 34.2021
    endloop
  endfacet
  facet normal 0 -1 0
    outer loop
      vertex -45.7 0 72.7
      vertex -42.5706 0 33.6506
      vertex -42.4135 0 33.9445
    endloop
  endfacet
  facet normal 0 -1 0
    outer loop
      vertex -45.7 0 72.7
      vertex -42.6673 0 33.3317
      vertex -42.5706 0 33.6506
    endloop
  endfacet
  facet normal 0 -1 0
    outer loop
      vertex -45.7 0 72.7
      vertex -42.7 0 33
      vertex -42.6673 0 33.3317
    endloop
  endfacet
  facet normal 0 -1 0
    outer loop
      vertex 40.3494 0 31.4294
      vertex 45.7 0 3
      vertex 40.6683 0 31.3327
    endloop
  endfacet
  facet normal 0 -1 -0
    outer loop
      vertex -41.3317 0 31.3327
      vertex -45.7 0 3
      vertex -41 0 31.3
    endloop
  endfacet
  facet normal 0 -1 -0
    outer loop
      vertex -41.6506 0 31.4294
      vertex -45.7 0 3
      vertex -41.3317 0 31.3327
    endloop
  endfacet
  facet normal 0 -1 -0
    outer loop
      vertex -41.9445 0 31.5865
      vertex -45.7 0 3
      vertex -41.6506 0 31.4294
    endloop
  endfacet
  facet normal 0 -1 -0
    outer loop
      vertex -42.2021 0 31.7979
      vertex -45.7 0 3
      vertex -41.9445 0 31.5865
    endloop
  endfacet
  facet normal 0 -1 -0
    outer loop
      vertex -42.4135 0 32.0555
      vertex -45.7 0 3
      vertex -42.2021 0 31.7979
    endloop
  endfacet
  facet normal 0 -1 -0
    outer loop
      vertex -42.5706 0 32.3494
      vertex -45.7 0 3
      vertex -42.4135 0 32.0555
    endloop
  endfacet
  facet normal 0 -1 -0
    outer loop
      vertex -42.6673 0 32.6683
      vertex -45.7 0 3
      vertex -42.5706 0 32.3494
    endloop
  endfacet
  facet normal 0 -1 -0
    outer loop
      vertex -42.7 0 33
      vertex -45.7 0 3
      vertex -42.6673 0 32.6683
    endloop
  endfacet
  facet normal 0 -1 0
    outer loop
      vertex -45.7 0 3
      vertex -42.7 0 33
      vertex -45.7 0 72.7
    endloop
  endfacet
  facet normal 0 -1 0
    outer loop
      vertex -40.3494 0 34.5706
      vertex -45.7 0 72.7
      vertex -40.6683 0 34.6673
    endloop
  endfacet
  facet normal 0 -1 0
    outer loop
      vertex 41.3317 0 34.6673
      vertex 45.7 0 72.7
      vertex 41 0 34.7
    endloop
  endfacet
  facet normal 0 -1 0
    outer loop
      vertex 41.6506 0 34.5706
      vertex 45.7 0 72.7
      vertex 41.3317 0 34.6673
    endloop
  endfacet
  facet normal 0 -1 0
    outer loop
      vertex 41.9445 0 34.4135
      vertex 45.7 0 72.7
      vertex 41.6506 0 34.5706
    endloop
  endfacet
  facet normal 0 -1 0
    outer loop
      vertex 42.2021 0 34.2021
      vertex 45.7 0 72.7
      vertex 41.9445 0 34.4135
    endloop
  endfacet
  facet normal 0 -1 0
    outer loop
      vertex 42.4135 0 33.9445
      vertex 45.7 0 72.7
      vertex 42.2021 0 34.2021
    endloop
  endfacet
  facet normal 0 -1 0
    outer loop
      vertex 42.5706 0 33.6506
      vertex 45.7 0 72.7
      vertex 42.4135 0 33.9445
    endloop
  endfacet
  facet normal 0 -1 0
    outer loop
      vertex 42.6673 0 33.3317
      vertex 45.7 0 72.7
      vertex 42.5706 0 33.6506
    endloop
  endfacet
  facet normal 0 -1 0
    outer loop
      vertex 42.7 0 33
      vertex 45.7 0 72.7
      vertex 42.6673 0 33.3317
    endloop
  endfacet
  facet normal 0 -1 0
    outer loop
      vertex 40.6683 0 31.3327
      vertex 45.7 0 3
      vertex 41 0 31.3
    endloop
  endfacet
  facet normal 0 -1 0
    outer loop
      vertex 41 0 31.3
      vertex 45.7 0 3
      vertex 41.3317 0 31.3327
    endloop
  endfacet
  facet normal 0 -1 0
    outer loop
      vertex 42.7 0 33
      vertex 45.7 0 3
      vertex 45.7 0 72.7
    endloop
  endfacet
  facet normal 0 -1 0
    outer loop
      vertex 42.6673 0 32.6683
      vertex 45.7 0 3
      vertex 42.7 0 33
    endloop
  endfacet
  facet normal 0 -1 0
    outer loop
      vertex 42.5706 0 32.3494
      vertex 45.7 0 3
      vertex 42.6673 0 32.6683
    endloop
  endfacet
  facet normal 0 -1 0
    outer loop
      vertex 42.4135 0 32.0555
      vertex 45.7 0 3
      vertex 42.5706 0 32.3494
    endloop
  endfacet
  facet normal 0 -1 0
    outer loop
      vertex 42.2021 0 31.7979
      vertex 45.7 0 3
      vertex 42.4135 0 32.0555
    endloop
  endfacet
  facet normal 0 -1 0
    outer loop
      vertex 41.9445 0 31.5865
      vertex 45.7 0 3
      vertex 42.2021 0 31.7979
    endloop
  endfacet
  facet normal 0 -1 0
    outer loop
      vertex 41.6506 0 31.4294
      vertex 45.7 0 3
      vertex 41.9445 0 31.5865
    endloop
  endfacet
  facet normal 0 -1 0
    outer loop
      vertex 41.3317 0 31.3327
      vertex 45.7 0 3
      vertex 41.6506 0 31.4294
    endloop
  endfacet
  facet normal 0 1 0
    outer loop
      vertex 34 165 66
      vertex 31 165 6
      vertex 31 165 66
    endloop
  endfacet
  facet normal 0 1 0
    outer loop
      vertex 31 165 6
      vertex 34 165 3
      vertex -31 165 6
    endloop
  endfacet
  facet normal 0 1 -0
    outer loop
      vertex 34 165 3
      vertex 31 165 6
      vertex 34 165 66
    endloop
  endfacet
  facet normal 0 1 -0
    outer loop
      vertex -31 165 6
      vertex -34 165 66
      vertex -31 165 66
    endloop
  endfacet
  facet normal 0 1 0
    outer loop
      vertex -31 165 6
      vertex -34 165 3
      vertex -34 165 66
    endloop
  endfacet
  facet normal 0 1 0
    outer loop
      vertex -34 165 3
      vertex -31 165 6
      vertex 34 165 3
    endloop
  endfacet
  facet normal -0 0 1
    outer loop
      vertex -34 165 66
      vertex -31 3 66
      vertex -31 165 66
    endloop
  endfacet
  facet normal 0 0 1
    outer loop
      vertex -31 3 66
      vertex -34 165 66
      vertex -34 3 66
    endloop
  endfacet
  facet normal 1 0 0
    outer loop
      vertex -31 140 21
      vertex -31 165 66
      vertex -31 140 56
    endloop
  endfacet
  facet normal 1 0 0
    outer loop
      vertex -31 165 66
      vertex -31 80 56
      vertex -31 140 56
    endloop
  endfacet
  facet normal 1 0 0
    outer loop
      vertex -31 80 56
      vertex -31 3 66
      vertex -31 80 21
    endloop
  endfacet
  facet normal 1 -0 0
    outer loop
      vertex -31 3 66
      vertex -31 80 56
      vertex -31 165 66
    endloop
  endfacet
  facet normal 1 0 0
    outer loop
      vertex -31 165 66
      vertex -31 140 21
      vertex -31 165 6
    endloop
  endfacet
  facet normal 1 -0 0
    outer loop
      vertex -31 80 21
      vertex -31 165 6
      vertex -31 140 21
    endloop
  endfacet
  facet normal 1 0 0
    outer loop
      vertex -31 80 21
      vertex -31 3 6
      vertex -31 165 6
    endloop
  endfacet
  facet normal 1 0 0
    outer loop
      vertex -31 3 6
      vertex -31 80 21
      vertex -31 3 66
    endloop
  endfacet
  facet normal -1 0 0
    outer loop
      vertex 31 3 6
      vertex 31 165 66
      vertex 31 165 6
    endloop
  endfacet
  facet normal -1 -0 0
    outer loop
      vertex 31 165 66
      vertex 31 3 6
      vertex 31 3 66
    endloop
  endfacet
  facet normal -0 0 1
    outer loop
      vertex 31 165 66
      vertex 34 3 66
      vertex 34 165 66
    endloop
  endfacet
  facet normal 0 0 1
    outer loop
      vertex 34 3 66
      vertex 31 165 66
      vertex 31 3 66
    endloop
  endfacet
  facet normal -1 0 0
    outer loop
      vertex -45.7 0 3
      vertex -45.7 3 72.7
      vertex -45.7 3 3
    endloop
  endfacet
  facet normal -1 -0 0
    outer loop
      vertex -45.7 3 72.7
      vertex -45.7 0 3
      vertex -45.7 0 72.7
    endloop
  endfacet
  facet normal -0 0 1
    outer loop
      vertex -45.7 3 72.7
      vertex 45.7 0 72.7
      vertex 45.7 3 72.7
    endloop
  endfacet
  facet normal 0 0 1
    outer loop
      vertex 45.7 0 72.7
      vertex -45.7 3 72.7
      vertex -45.7 0 72.7
    endloop
  endfacet
  facet normal 1 -0 0
    outer loop
      vertex 45.7 0 72.7
      vertex 45.7 3 3
      vertex 45.7 3 72.7
    endloop
  endfacet
  facet normal 1 0 0
    outer loop
      vertex 45.7 3 3
      vertex 45.7 0 72.7
      vertex 45.7 0 3
    endloop
  endfacet
  facet normal 0 1 0
    outer loop
      vertex -34 3 66
      vertex -40.6683 3 34.6673
      vertex -41 3 34.7
    endloop
  endfacet
  facet normal 0 1 0
    outer loop
      vertex -34 3 66
      vertex -40.3494 3 34.5706
      vertex -40.6683 3 34.6673
    endloop
  endfacet
  facet normal 0 1 0
    outer loop
      vertex -34 3 66
      vertex -40.0555 3 34.4135
      vertex -40.3494 3 34.5706
    endloop
  endfacet
  facet normal 0 1 0
    outer loop
      vertex -34 3 66
      vertex -39.7979 3 34.2021
      vertex -40.0555 3 34.4135
    endloop
  endfacet
  facet normal 0 1 0
    outer loop
      vertex -34 3 66
      vertex -39.5865 3 33.9445
      vertex -39.7979 3 34.2021
    endloop
  endfacet
  facet normal 0 1 0
    outer loop
      vertex -34 3 66
      vertex -39.4294 3 33.6506
      vertex -39.5865 3 33.9445
    endloop
  endfacet
  facet normal 0 1 0
    outer loop
      vertex -34 3 66
      vertex -39.3327 3 33.3317
      vertex -39.4294 3 33.6506
    endloop
  endfacet
  facet normal 0 1 0
    outer loop
      vertex -34 3 66
      vertex -39.3 3 33
      vertex -39.3327 3 33.3317
    endloop
  endfacet
  facet normal 0 1 -0
    outer loop
      vertex -34 3 3
      vertex -39.3 3 33
      vertex -34 3 66
    endloop
  endfacet
  facet normal 0 1 0
    outer loop
      vertex -40.6683 3 31.3327
      vertex -34 3 3
      vertex -41 3 31.3
    endloop
  endfacet
  facet normal 0 1 0
    outer loop
      vertex -40.3494 3 31.4294
      vertex -34 3 3
      vertex -40.6683 3 31.3327
    endloop
  endfacet
  facet normal 0 1 0
    outer loop
      vertex -40.0555 3 31.5865
      vertex -34 3 3
      vertex -40.3494 3 31.4294
    endloop
  endfacet
  facet normal 0 1 0
    outer loop
      vertex -39.7979 3 31.7979
      vertex -34 3 3
      vertex -40.0555 3 31.5865
    endloop
  endfacet
  facet normal 0 1 0
    outer loop
      vertex -39.5865 3 32.0555
      vertex -34 3 3
      vertex -39.7979 3 31.7979
    endloop
  endfacet
  facet normal 0 1 0
    outer loop
      vertex -39.4294 3 32.3494
      vertex -34 3 3
      vertex -39.5865 3 32.0555
    endloop
  endfacet
  facet normal 0 1 0
    outer loop
      vertex -39.3327 3 32.6683
      vertex -34 3 3
      vertex -39.4294 3 32.3494
    endloop
  endfacet
  facet normal 0 1 0
    outer loop
      vertex -39.3 3 33
      vertex -34 3 3
      vertex -39.3327 3 32.6683
    endloop
  endfacet
  facet normal 0 1 -0
    outer loop
      vertex 31 3 6
      vertex -31 3 66
      vertex 31 3 66
    endloop
  endfacet
  facet normal 0 1 0
    outer loop
      vertex -31 3 66
      vertex 31 3 6
      vertex -31 3 6
    endloop
  endfacet
  facet normal 0 1 0
    outer loop
      vertex 31 3 66
      vertex 45.7 3 72.7
      vertex 34 3 66
    endloop
  endfacet
  facet normal 0 1 -0
    outer loop
      vertex 41.6506 3 34.5706
      vertex 34 3 66
      vertex 45.7 3 72.7
    endloop
  endfacet
  facet normal 0 1 0
    outer loop
      vertex 34 3 66
      vertex 41.3317 3 34.6673
      vertex 41 3 34.7
    endloop
  endfacet
  facet normal 0 1 0
    outer loop
      vertex 34 3 66
      vertex 41.6506 3 34.5706
      vertex 41.3317 3 34.6673
    endloop
  endfacet
  facet normal 0 1 0
    outer loop
      vertex 45.7 3 72.7
      vertex 41.9445 3 34.4135
      vertex 41.6506 3 34.5706
    endloop
  endfacet
  facet normal 0 1 0
    outer loop
      vertex 45.7 3 72.7
      vertex 42.2021 3 34.2021
      vertex 41.9445 3 34.4135
    endloop
  endfacet
  facet normal 0 1 0
    outer loop
      vertex 45.7 3 72.7
      vertex 42.4135 3 33.9445
      vertex 42.2021 3 34.2021
    endloop
  endfacet
  facet normal 0 1 0
    outer loop
      vertex 45.7 3 72.7
      vertex 42.5706 3 33.6506
      vertex 42.4135 3 33.9445
    endloop
  endfacet
  facet normal 0 1 0
    outer loop
      vertex 45.7 3 72.7
      vertex 42.6673 3 33.3317
      vertex 42.5706 3 33.6506
    endloop
  endfacet
  facet normal 0 1 0
    outer loop
      vertex 45.7 3 72.7
      vertex 42.7 3 33
      vertex 42.6673 3 33.3317
    endloop
  endfacet
  facet normal 0 1 0
    outer loop
      vertex 41.3317 3 31.3327
      vertex 45.7 3 3
      vertex 41 3 31.3
    endloop
  endfacet
  facet normal 0 1 0
    outer loop
      vertex 41.6506 3 31.4294
      vertex 45.7 3 3
      vertex 41.3317 3 31.3327
    endloop
  endfacet
  facet normal 0 1 0
    outer loop
      vertex 41.9445 3 31.5865
      vertex 45.7 3 3
      vertex 41.6506 3 31.4294
    endloop
  endfacet
  facet normal 0 1 0
    outer loop
      vertex 42.2021 3 31.7979
      vertex 45.7 3 3
      vertex 41.9445 3 31.5865
    endloop
  endfacet
  facet normal 0 1 0
    outer loop
      vertex 42.4135 3 32.0555
      vertex 45.7 3 3
      vertex 42.2021 3 31.7979
    endloop
  endfacet
  facet normal 0 1 0
    outer loop
      vertex 42.5706 3 32.3494
      vertex 45.7 3 3
      vertex 42.4135 3 32.0555
    endloop
  endfacet
  facet normal 0 1 0
    outer loop
      vertex 42.6673 3 32.6683
      vertex 45.7 3 3
      vertex 42.5706 3 32.3494
    endloop
  endfacet
  facet normal 0 1 0
    outer loop
      vertex 42.7 3 33
      vertex 45.7 3 3
      vertex 42.6673 3 32.6683
    endloop
  endfacet
  facet normal 0 1 -0
    outer loop
      vertex 45.7 3 3
      vertex 42.7 3 33
      vertex 45.7 3 72.7
    endloop
  endfacet
  facet normal 0 1 0
    outer loop
      vertex 45.7 3 72.7
      vertex 31 3 66
      vertex -45.7 3 72.7
    endloop
  endfacet
  facet normal 0 1 -0
    outer loop
      vertex -31 3 66
      vertex -45.7 3 72.7
      vertex 31 3 66
    endloop
  endfacet
  facet normal 0 1 -0
    outer loop
      vertex -34 3 66
      vertex -45.7 3 72.7
      vertex -31 3 66
    endloop
  endfacet
  facet normal 0 1 0
    outer loop
      vertex -41.3317 3 34.6673
      vertex -34 3 66
      vertex -41 3 34.7
    endloop
  endfacet
  facet normal 0 1 0
    outer loop
      vertex -41.6506 3 34.5706
      vertex -34 3 66
      vertex -41.3317 3 34.6673
    endloop
  endfacet
  facet normal 0 1 0
    outer loop
      vertex -34 3 66
      vertex -41.6506 3 34.5706
      vertex -45.7 3 72.7
    endloop
  endfacet
  facet normal 0 1 -0
    outer loop
      vertex -41.9445 3 34.4135
      vertex -45.7 3 72.7
      vertex -41.6506 3 34.5706
    endloop
  endfacet
  facet normal 0 1 -0
    outer loop
      vertex -42.2021 3 34.2021
      vertex -45.7 3 72.7
      vertex -41.9445 3 34.4135
    endloop
  endfacet
  facet normal 0 1 -0
    outer loop
      vertex -42.4135 3 33.9445
      vertex -45.7 3 72.7
      vertex -42.2021 3 34.2021
    endloop
  endfacet
  facet normal 0 1 -0
    outer loop
      vertex -42.5706 3 33.6506
      vertex -45.7 3 72.7
      vertex -42.4135 3 33.9445
    endloop
  endfacet
  facet normal 0 1 -0
    outer loop
      vertex -42.6673 3 33.3317
      vertex -45.7 3 72.7
      vertex -42.5706 3 33.6506
    endloop
  endfacet
  facet normal 0 1 -0
    outer loop
      vertex -42.7 3 33
      vertex -45.7 3 72.7
      vertex -42.6673 3 33.3317
    endloop
  endfacet
  facet normal 0 1 0
    outer loop
      vertex -45.7 3 3
      vertex -41 3 31.3
      vertex -34 3 3
    endloop
  endfacet
  facet normal 0 1 0
    outer loop
      vertex -41 3 31.3
      vertex -45.7 3 3
      vertex -41.3317 3 31.3327
    endloop
  endfacet
  facet normal 0 1 0
    outer loop
      vertex -41.3317 3 31.3327
      vertex -45.7 3 3
      vertex -41.6506 3 31.4294
    endloop
  endfacet
  facet normal 0 1 0
    outer loop
      vertex -41.6506 3 31.4294
      vertex -45.7 3 3
      vertex -41.9445 3 31.5865
    endloop
  endfacet
  facet normal 0 1 0
    outer loop
      vertex -41.9445 3 31.5865
      vertex -45.7 3 3
      vertex -42.2021 3 31.7979
    endloop
  endfacet
  facet normal 0 1 0
    outer loop
      vertex -42.2021 3 31.7979
      vertex -45.7 3 3
      vertex -42.4135 3 32.0555
    endloop
  endfacet
  facet normal 0 1 0
    outer loop
      vertex -42.4135 3 32.0555
      vertex -45.7 3 3
      vertex -42.5706 3 32.3494
    endloop
  endfacet
  facet normal 0 1 0
    outer loop
      vertex -42.7 3 33
      vertex -45.7 3 3
      vertex -45.7 3 72.7
    endloop
  endfacet
  facet normal 0 1 0
    outer loop
      vertex -42.6673 3 32.6683
      vertex -45.7 3 3
      vertex -42.7 3 33
    endloop
  endfacet
  facet normal 0 1 0
    outer loop
      vertex -42.5706 3 32.3494
      vertex -45.7 3 3
      vertex -42.6673 3 32.6683
    endloop
  endfacet
  facet normal 0 1 -0
    outer loop
      vertex 40.6683 3 34.6673
      vertex 34 3 66
      vertex 41 3 34.7
    endloop
  endfacet
  facet normal 0 1 -0
    outer loop
      vertex 40.3494 3 34.5706
      vertex 34 3 66
      vertex 40.6683 3 34.6673
    endloop
  endfacet
  facet normal 0 1 -0
    outer loop
      vertex 40.0555 3 34.4135
      vertex 34 3 66
      vertex 40.3494 3 34.5706
    endloop
  endfacet
  facet normal 0 1 -0
    outer loop
      vertex 39.7979 3 34.2021
      vertex 34 3 66
      vertex 40.0555 3 34.4135
    endloop
  endfacet
  facet normal 0 1 -0
    outer loop
      vertex 39.5865 3 33.9445
      vertex 34 3 66
      vertex 39.7979 3 34.2021
    endloop
  endfacet
  facet normal 0 1 -0
    outer loop
      vertex 39.4294 3 33.6506
      vertex 34 3 66
      vertex 39.5865 3 33.9445
    endloop
  endfacet
  facet normal 0 1 -0
    outer loop
      vertex 39.3327 3 33.3317
      vertex 34 3 66
      vertex 39.4294 3 33.6506
    endloop
  endfacet
  facet normal 0 1 -0
    outer loop
      vertex 39.3 3 33
      vertex 34 3 66
      vertex 39.3327 3 33.3317
    endloop
  endfacet
  facet normal 0 1 0
    outer loop
      vertex 34 3 3
      vertex 39.3 3 33
      vertex 39.3327 3 32.6683
    endloop
  endfacet
  facet normal 0 1 0
    outer loop
      vertex 34 3 3
      vertex 41 3 31.3
      vertex 45.7 3 3
    endloop
  endfacet
  facet normal 0 1 0
    outer loop
      vertex 41 3 31.3
      vertex 34 3 3
      vertex 40.6683 3 31.3327
    endloop
  endfacet
  facet normal 0 1 0
    outer loop
      vertex 40.6683 3 31.3327
      vertex 34 3 3
      vertex 40.3494 3 31.4294
    endloop
  endfacet
  facet normal 0 1 0
    outer loop
      vertex 40.3494 3 31.4294
      vertex 34 3 3
      vertex 40.0555 3 31.5865
    endloop
  endfacet
  facet normal 0 1 0
    outer loop
      vertex 40.0555 3 31.5865
      vertex 34 3 3
      vertex 39.7979 3 31.7979
    endloop
  endfacet
  facet normal 0 1 0
    outer loop
      vertex 39.7979 3 31.7979
      vertex 34 3 3
      vertex 39.5865 3 32.0555
    endloop
  endfacet
  facet normal 0 1 0
    outer loop
      vertex 39.5865 3 32.0555
      vertex 34 3 3
      vertex 39.4294 3 32.3494
    endloop
  endfacet
  facet normal 0 1 0
    outer loop
      vertex 39.3 3 33
      vertex 34 3 3
      vertex 34 3 66
    endloop
  endfacet
  facet normal 0 1 0
    outer loop
      vertex 39.4294 3 32.3494
      vertex 34 3 3
      vertex 39.3327 3 32.6683
    endloop
  endfacet
  facet normal -0.995176 0 -0.0981075
    outer loop
      vertex -39.3 0 33
      vertex -39.3327 3 33.3317
      vertex -39.3 3 33
    endloop
  endfacet
  facet normal -0.995176 -0 -0.0981075
    outer loop
      vertex -39.3327 3 33.3317
      vertex -39.3 0 33
      vertex -39.3327 0 33.3317
    endloop
  endfacet
  facet normal -0.956971 0 -0.290182
    outer loop
      vertex -39.3327 0 33.3317
      vertex -39.4294 3 33.6506
      vertex -39.3327 3 33.3317
    endloop
  endfacet
  facet normal -0.956971 -0 -0.290182
    outer loop
      vertex -39.4294 3 33.6506
      vertex -39.3327 0 33.3317
      vertex -39.4294 0 33.6506
    endloop
  endfacet
  facet normal 0.0981075 -7.70012e-19 -0.995176
    outer loop
      vertex -41.3317 0 34.6673
      vertex -41 3 34.7
      vertex -41 0 34.7
    endloop
  endfacet
  facet normal 0.0981075 -7.70012e-19 -0.995176
    outer loop
      vertex -41 3 34.7
      vertex -41.3317 0 34.6673
      vertex -41.3317 3 34.6673
    endloop
  endfacet
  facet normal -0.634381 1.62338e-18 -0.773021
    outer loop
      vertex -40.0555 0 34.4135
      vertex -39.7979 3 34.2021
      vertex -39.7979 0 34.2021
    endloop
  endfacet
  facet normal -0.634381 1.62338e-18 -0.773021
    outer loop
      vertex -39.7979 3 34.2021
      vertex -40.0555 0 34.4135
      vertex -40.0555 3 34.4135
    endloop
  endfacet
  facet normal 0.773021 0 -0.634381
    outer loop
      vertex -42.2021 0 34.2021
      vertex -42.4135 3 33.9445
      vertex -42.2021 3 34.2021
    endloop
  endfacet
  facet normal 0.773021 0 -0.634381
    outer loop
      vertex -42.4135 3 33.9445
      vertex -42.2021 0 34.2021
      vertex -42.4135 0 33.9445
    endloop
  endfacet
  facet normal 0.471413 -2.46376e-18 -0.881912
    outer loop
      vertex -41.9445 0 34.4135
      vertex -41.6506 3 34.5706
      vertex -41.6506 0 34.5706
    endloop
  endfacet
  facet normal 0.471413 -2.46376e-18 -0.881912
    outer loop
      vertex -41.6506 3 34.5706
      vertex -41.9445 0 34.4135
      vertex -41.9445 3 34.4135
    endloop
  endfacet
  facet normal -0.881912 0 -0.471413
    outer loop
      vertex -39.4294 0 33.6506
      vertex -39.5865 3 33.9445
      vertex -39.4294 3 33.6506
    endloop
  endfacet
  facet normal -0.881912 -0 -0.471413
    outer loop
      vertex -39.5865 3 33.9445
      vertex -39.4294 0 33.6506
      vertex -39.5865 0 33.9445
    endloop
  endfacet
  facet normal -0.290182 -4.64306e-19 -0.956971
    outer loop
      vertex -40.6683 0 34.6673
      vertex -40.3494 3 34.5706
      vertex -40.3494 0 34.5706
    endloop
  endfacet
  facet normal -0.290182 -4.64306e-19 -0.956971
    outer loop
      vertex -40.3494 3 34.5706
      vertex -40.6683 0 34.6673
      vertex -40.6683 3 34.6673
    endloop
  endfacet
  facet normal -0.471413 2.46376e-18 -0.881912
    outer loop
      vertex -40.3494 0 34.5706
      vertex -40.0555 3 34.4135
      vertex -40.0555 0 34.4135
    endloop
  endfacet
  facet normal -0.471413 2.46376e-18 -0.881912
    outer loop
      vertex -40.0555 3 34.4135
      vertex -40.3494 0 34.5706
      vertex -40.3494 3 34.5706
    endloop
  endfacet
  facet normal 0.956971 0 -0.290182
    outer loop
      vertex -42.5706 0 33.6506
      vertex -42.6673 3 33.3317
      vertex -42.5706 3 33.6506
    endloop
  endfacet
  facet normal 0.956971 0 -0.290182
    outer loop
      vertex -42.6673 3 33.3317
      vertex -42.5706 0 33.6506
      vertex -42.6673 0 33.3317
    endloop
  endfacet
  facet normal 0.881912 0 -0.471413
    outer loop
      vertex -42.4135 0 33.9445
      vertex -42.5706 3 33.6506
      vertex -42.4135 3 33.9445
    endloop
  endfacet
  facet normal 0.881912 0 -0.471413
    outer loop
      vertex -42.5706 3 33.6506
      vertex -42.4135 0 33.9445
      vertex -42.5706 0 33.6506
    endloop
  endfacet
  facet normal 0.290182 4.64306e-19 -0.956971
    outer loop
      vertex -41.6506 0 34.5706
      vertex -41.3317 3 34.6673
      vertex -41.3317 0 34.6673
    endloop
  endfacet
  facet normal 0.290182 4.64306e-19 -0.956971
    outer loop
      vertex -41.3317 3 34.6673
      vertex -41.6506 0 34.5706
      vertex -41.6506 3 34.5706
    endloop
  endfacet
  facet normal -0.995176 0 0.0981075
    outer loop
      vertex -39.3327 0 32.6683
      vertex -39.3 3 33
      vertex -39.3327 3 32.6683
    endloop
  endfacet
  facet normal -0.995176 0 0.0981075
    outer loop
      vertex -39.3 3 33
      vertex -39.3327 0 32.6683
      vertex -39.3 0 33
    endloop
  endfacet
  facet normal -0.290182 -1.45731e-18 0.956971
    outer loop
      vertex -40.6683 3 31.3327
      vertex -40.3494 0 31.4294
      vertex -40.3494 3 31.4294
    endloop
  endfacet
  facet normal -0.290182 -1.45731e-18 0.956971
    outer loop
      vertex -40.3494 0 31.4294
      vertex -40.6683 3 31.3327
      vertex -40.6683 0 31.3327
    endloop
  endfacet
  facet normal -0.471413 -2.46376e-18 0.881912
    outer loop
      vertex -40.3494 3 31.4294
      vertex -40.0555 0 31.5865
      vertex -40.0555 3 31.5865
    endloop
  endfacet
  facet normal -0.471413 -2.46376e-18 0.881912
    outer loop
      vertex -40.0555 0 31.5865
      vertex -40.3494 3 31.4294
      vertex -40.3494 0 31.4294
    endloop
  endfacet
  facet normal -0.773021 0 -0.634381
    outer loop
      vertex -39.5865 0 33.9445
      vertex -39.7979 3 34.2021
      vertex -39.5865 3 33.9445
    endloop
  endfacet
  facet normal -0.773021 -0 -0.634381
    outer loop
      vertex -39.7979 3 34.2021
      vertex -39.5865 0 33.9445
      vertex -39.7979 0 34.2021
    endloop
  endfacet
  facet normal -0.0981075 7.70012e-19 -0.995176
    outer loop
      vertex -41 0 34.7
      vertex -40.6683 3 34.6673
      vertex -40.6683 0 34.6673
    endloop
  endfacet
  facet normal -0.0981075 7.70012e-19 -0.995176
    outer loop
      vertex -40.6683 3 34.6673
      vertex -41 0 34.7
      vertex -41 3 34.7
    endloop
  endfacet
  facet normal 0.995176 0 -0.0981075
    outer loop
      vertex -42.6673 0 33.3317
      vertex -42.7 3 33
      vertex -42.6673 3 33.3317
    endloop
  endfacet
  facet normal 0.995176 0 -0.0981075
    outer loop
      vertex -42.7 3 33
      vertex -42.6673 0 33.3317
      vertex -42.7 0 33
    endloop
  endfacet
  facet normal 0.995176 -0 0.0981075
    outer loop
      vertex -42.7 0 33
      vertex -42.6673 3 32.6683
      vertex -42.7 3 33
    endloop
  endfacet
  facet normal 0.995176 0 0.0981075
    outer loop
      vertex -42.6673 3 32.6683
      vertex -42.7 0 33
      vertex -42.6673 0 32.6683
    endloop
  endfacet
  facet normal 0.634381 -1.62338e-18 -0.773021
    outer loop
      vertex -42.2021 0 34.2021
      vertex -41.9445 3 34.4135
      vertex -41.9445 0 34.4135
    endloop
  endfacet
  facet normal 0.634381 -1.62338e-18 -0.773021
    outer loop
      vertex -41.9445 3 34.4135
      vertex -42.2021 0 34.2021
      vertex -42.2021 3 34.2021
    endloop
  endfacet
  facet normal -0.634381 -1.62338e-18 0.773021
    outer loop
      vertex -40.0555 3 31.5865
      vertex -39.7979 0 31.7979
      vertex -39.7979 3 31.7979
    endloop
  endfacet
  facet normal -0.634381 -1.62338e-18 0.773021
    outer loop
      vertex -39.7979 0 31.7979
      vertex -40.0555 3 31.5865
      vertex -40.0555 0 31.5865
    endloop
  endfacet
  facet normal 0.471413 2.46376e-18 0.881912
    outer loop
      vertex -41.9445 3 31.5865
      vertex -41.6506 0 31.4294
      vertex -41.6506 3 31.4294
    endloop
  endfacet
  facet normal 0.471413 2.46376e-18 0.881912
    outer loop
      vertex -41.6506 0 31.4294
      vertex -41.9445 3 31.5865
      vertex -41.9445 0 31.5865
    endloop
  endfacet
  facet normal 0.773021 -0 0.634381
    outer loop
      vertex -42.4135 0 32.0555
      vertex -42.2021 3 31.7979
      vertex -42.4135 3 32.0555
    endloop
  endfacet
  facet normal 0.773021 0 0.634381
    outer loop
      vertex -42.2021 3 31.7979
      vertex -42.4135 0 32.0555
      vertex -42.2021 0 31.7979
    endloop
  endfacet
  facet normal 0.881912 -0 0.471413
    outer loop
      vertex -42.5706 0 32.3494
      vertex -42.4135 3 32.0555
      vertex -42.5706 3 32.3494
    endloop
  endfacet
  facet normal 0.881912 0 0.471413
    outer loop
      vertex -42.4135 3 32.0555
      vertex -42.5706 0 32.3494
      vertex -42.4135 0 32.0555
    endloop
  endfacet
  facet normal 0.634381 1.62338e-18 0.773021
    outer loop
      vertex -42.2021 3 31.7979
      vertex -41.9445 0 31.5865
      vertex -41.9445 3 31.5865
    endloop
  endfacet
  facet normal 0.634381 1.62338e-18 0.773021
    outer loop
      vertex -41.9445 0 31.5865
      vertex -42.2021 3 31.7979
      vertex -42.2021 0 31.7979
    endloop
  endfacet
  facet normal 0.956971 -0 0.290182
    outer loop
      vertex -42.6673 0 32.6683
      vertex -42.5706 3 32.3494
      vertex -42.6673 3 32.6683
    endloop
  endfacet
  facet normal 0.956971 0 0.290182
    outer loop
      vertex -42.5706 3 32.3494
      vertex -42.6673 0 32.6683
      vertex -42.5706 0 32.3494
    endloop
  endfacet
  facet normal -0.0981075 3.46463e-19 0.995176
    outer loop
      vertex -41 3 31.3
      vertex -40.6683 0 31.3327
      vertex -40.6683 3 31.3327
    endloop
  endfacet
  facet normal -0.0981075 3.46463e-19 0.995176
    outer loop
      vertex -40.6683 0 31.3327
      vertex -41 3 31.3
      vertex -41 0 31.3
    endloop
  endfacet
  facet normal -0.881912 0 0.471413
    outer loop
      vertex -39.5865 0 32.0555
      vertex -39.4294 3 32.3494
      vertex -39.5865 3 32.0555
    endloop
  endfacet
  facet normal -0.881912 0 0.471413
    outer loop
      vertex -39.4294 3 32.3494
      vertex -39.5865 0 32.0555
      vertex -39.4294 0 32.3494
    endloop
  endfacet
  facet normal -0.956971 0 0.290182
    outer loop
      vertex -39.4294 0 32.3494
      vertex -39.3327 3 32.6683
      vertex -39.4294 3 32.3494
    endloop
  endfacet
  facet normal -0.956971 0 0.290182
    outer loop
      vertex -39.3327 3 32.6683
      vertex -39.4294 0 32.3494
      vertex -39.3327 0 32.6683
    endloop
  endfacet
  facet normal -0.773021 0 0.634381
    outer loop
      vertex -39.7979 0 31.7979
      vertex -39.5865 3 32.0555
      vertex -39.7979 3 31.7979
    endloop
  endfacet
  facet normal -0.773021 0 0.634381
    outer loop
      vertex -39.5865 3 32.0555
      vertex -39.7979 0 31.7979
      vertex -39.5865 0 32.0555
    endloop
  endfacet
  facet normal 0.290182 1.45731e-18 0.956971
    outer loop
      vertex -41.6506 3 31.4294
      vertex -41.3317 0 31.3327
      vertex -41.3317 3 31.3327
    endloop
  endfacet
  facet normal 0.290182 1.45731e-18 0.956971
    outer loop
      vertex -41.3317 0 31.3327
      vertex -41.6506 3 31.4294
      vertex -41.6506 0 31.4294
    endloop
  endfacet
  facet normal 0.0981075 -3.46463e-19 0.995176
    outer loop
      vertex -41.3317 3 31.3327
      vertex -41 0 31.3
      vertex -41 3 31.3
    endloop
  endfacet
  facet normal 0.0981075 -3.46463e-19 0.995176
    outer loop
      vertex -41 0 31.3
      vertex -41.3317 3 31.3327
      vertex -41.3317 0 31.3327
    endloop
  endfacet
  facet normal -0.995176 0 -0.0981075
    outer loop
      vertex 42.7 0 33
      vertex 42.6673 3 33.3317
      vertex 42.7 3 33
    endloop
  endfacet
  facet normal -0.995176 -0 -0.0981075
    outer loop
      vertex 42.6673 3 33.3317
      vertex 42.7 0 33
      vertex 42.6673 0 33.3317
    endloop
  endfacet
  facet normal -0.881912 0 -0.471413
    outer loop
      vertex 42.5706 0 33.6506
      vertex 42.4135 3 33.9445
      vertex 42.5706 3 33.6506
    endloop
  endfacet
  facet normal -0.881912 -0 -0.471413
    outer loop
      vertex 42.4135 3 33.9445
      vertex 42.5706 0 33.6506
      vertex 42.4135 0 33.9445
    endloop
  endfacet
  facet normal -0.290182 -4.64306e-19 -0.956971
    outer loop
      vertex 41.3317 0 34.6673
      vertex 41.6506 3 34.5706
      vertex 41.6506 0 34.5706
    endloop
  endfacet
  facet normal -0.290182 -4.64306e-19 -0.956971
    outer loop
      vertex 41.6506 3 34.5706
      vertex 41.3317 0 34.6673
      vertex 41.3317 3 34.6673
    endloop
  endfacet
  facet normal 0.471413 -2.46376e-18 -0.881912
    outer loop
      vertex 40.0555 0 34.4135
      vertex 40.3494 3 34.5706
      vertex 40.3494 0 34.5706
    endloop
  endfacet
  facet normal 0.471413 -2.46376e-18 -0.881912
    outer loop
      vertex 40.3494 3 34.5706
      vertex 40.0555 0 34.4135
      vertex 40.0555 3 34.4135
    endloop
  endfacet
  facet normal 0.956971 0 -0.290182
    outer loop
      vertex 39.4294 0 33.6506
      vertex 39.3327 3 33.3317
      vertex 39.4294 3 33.6506
    endloop
  endfacet
  facet normal 0.956971 0 -0.290182
    outer loop
      vertex 39.3327 3 33.3317
      vertex 39.4294 0 33.6506
      vertex 39.3327 0 33.3317
    endloop
  endfacet
  facet normal -0.995176 0 0.0981075
    outer loop
      vertex 42.6673 0 32.6683
      vertex 42.7 3 33
      vertex 42.6673 3 32.6683
    endloop
  endfacet
  facet normal -0.995176 0 0.0981075
    outer loop
      vertex 42.7 3 33
      vertex 42.6673 0 32.6683
      vertex 42.7 0 33
    endloop
  endfacet
  facet normal -0.471413 -2.46376e-18 0.881912
    outer loop
      vertex 41.6506 3 31.4294
      vertex 41.9445 0 31.5865
      vertex 41.9445 3 31.5865
    endloop
  endfacet
  facet normal -0.471413 -2.46376e-18 0.881912
    outer loop
      vertex 41.9445 0 31.5865
      vertex 41.6506 3 31.4294
      vertex 41.6506 0 31.4294
    endloop
  endfacet
  facet normal -0.634381 1.62338e-18 -0.773021
    outer loop
      vertex 41.9445 0 34.4135
      vertex 42.2021 3 34.2021
      vertex 42.2021 0 34.2021
    endloop
  endfacet
  facet normal -0.634381 1.62338e-18 -0.773021
    outer loop
      vertex 42.2021 3 34.2021
      vertex 41.9445 0 34.4135
      vertex 41.9445 3 34.4135
    endloop
  endfacet
  facet normal -0.773021 0 -0.634381
    outer loop
      vertex 42.4135 0 33.9445
      vertex 42.2021 3 34.2021
      vertex 42.4135 3 33.9445
    endloop
  endfacet
  facet normal -0.773021 -0 -0.634381
    outer loop
      vertex 42.2021 3 34.2021
      vertex 42.4135 0 33.9445
      vertex 42.2021 0 34.2021
    endloop
  endfacet
  facet normal 0.0981075 -7.70012e-19 -0.995176
    outer loop
      vertex 40.6683 0 34.6673
      vertex 41 3 34.7
      vertex 41 0 34.7
    endloop
  endfacet
  facet normal 0.0981075 -7.70012e-19 -0.995176
    outer loop
      vertex 41 3 34.7
      vertex 40.6683 0 34.6673
      vertex 40.6683 3 34.6673
    endloop
  endfacet
  facet normal 0.995176 -0 0.0981075
    outer loop
      vertex 39.3 0 33
      vertex 39.3327 3 32.6683
      vertex 39.3 3 33
    endloop
  endfacet
  facet normal 0.995176 0 0.0981075
    outer loop
      vertex 39.3327 3 32.6683
      vertex 39.3 0 33
      vertex 39.3327 0 32.6683
    endloop
  endfacet
  facet normal 0.881912 0 -0.471413
    outer loop
      vertex 39.5865 0 33.9445
      vertex 39.4294 3 33.6506
      vertex 39.5865 3 33.9445
    endloop
  endfacet
  facet normal 0.881912 0 -0.471413
    outer loop
      vertex 39.4294 3 33.6506
      vertex 39.5865 0 33.9445
      vertex 39.4294 0 33.6506
    endloop
  endfacet
  facet normal 0.773021 -0 0.634381
    outer loop
      vertex 39.5865 0 32.0555
      vertex 39.7979 3 31.7979
      vertex 39.5865 3 32.0555
    endloop
  endfacet
  facet normal 0.773021 0 0.634381
    outer loop
      vertex 39.7979 3 31.7979
      vertex 39.5865 0 32.0555
      vertex 39.7979 0 31.7979
    endloop
  endfacet
  facet normal -0.956971 0 -0.290182
    outer loop
      vertex 42.6673 0 33.3317
      vertex 42.5706 3 33.6506
      vertex 42.6673 3 33.3317
    endloop
  endfacet
  facet normal -0.956971 -0 -0.290182
    outer loop
      vertex 42.5706 3 33.6506
      vertex 42.6673 0 33.3317
      vertex 42.5706 0 33.6506
    endloop
  endfacet
  facet normal -0.0981075 7.70012e-19 -0.995176
    outer loop
      vertex 41 0 34.7
      vertex 41.3317 3 34.6673
      vertex 41.3317 0 34.6673
    endloop
  endfacet
  facet normal -0.0981075 7.70012e-19 -0.995176
    outer loop
      vertex 41.3317 3 34.6673
      vertex 41 0 34.7
      vertex 41 3 34.7
    endloop
  endfacet
  facet normal -0.471413 2.46376e-18 -0.881912
    outer loop
      vertex 41.6506 0 34.5706
      vertex 41.9445 3 34.4135
      vertex 41.9445 0 34.4135
    endloop
  endfacet
  facet normal -0.471413 2.46376e-18 -0.881912
    outer loop
      vertex 41.9445 3 34.4135
      vertex 41.6506 0 34.5706
      vertex 41.6506 3 34.5706
    endloop
  endfacet
  facet normal 0.995176 0 -0.0981075
    outer loop
      vertex 39.3327 0 33.3317
      vertex 39.3 3 33
      vertex 39.3327 3 33.3317
    endloop
  endfacet
  facet normal 0.995176 0 -0.0981075
    outer loop
      vertex 39.3 3 33
      vertex 39.3327 0 33.3317
      vertex 39.3 0 33
    endloop
  endfacet
  facet normal 0.290182 4.64306e-19 -0.956971
    outer loop
      vertex 40.3494 0 34.5706
      vertex 40.6683 3 34.6673
      vertex 40.6683 0 34.6673
    endloop
  endfacet
  facet normal 0.290182 4.64306e-19 -0.956971
    outer loop
      vertex 40.6683 3 34.6673
      vertex 40.3494 0 34.5706
      vertex 40.3494 3 34.5706
    endloop
  endfacet
  facet normal 0.634381 -1.62338e-18 -0.773021
    outer loop
      vertex 39.7979 0 34.2021
      vertex 40.0555 3 34.4135
      vertex 40.0555 0 34.4135
    endloop
  endfacet
  facet normal 0.634381 -1.62338e-18 -0.773021
    outer loop
      vertex 40.0555 3 34.4135
      vertex 39.7979 0 34.2021
      vertex 39.7979 3 34.2021
    endloop
  endfacet
  facet normal 0.773021 0 -0.634381
    outer loop
      vertex 39.7979 0 34.2021
      vertex 39.5865 3 33.9445
      vertex 39.7979 3 34.2021
    endloop
  endfacet
  facet normal 0.773021 0 -0.634381
    outer loop
      vertex 39.5865 3 33.9445
      vertex 39.7979 0 34.2021
      vertex 39.5865 0 33.9445
    endloop
  endfacet
  facet normal 0.956971 -0 0.290182
    outer loop
      vertex 39.3327 0 32.6683
      vertex 39.4294 3 32.3494
      vertex 39.3327 3 32.6683
    endloop
  endfacet
  facet normal 0.956971 0 0.290182
    outer loop
      vertex 39.4294 3 32.3494
      vertex 39.3327 0 32.6683
      vertex 39.4294 0 32.3494
    endloop
  endfacet
  facet normal 0.881912 -0 0.471413
    outer loop
      vertex 39.4294 0 32.3494
      vertex 39.5865 3 32.0555
      vertex 39.4294 3 32.3494
    endloop
  endfacet
  facet normal 0.881912 0 0.471413
    outer loop
      vertex 39.5865 3 32.0555
      vertex 39.4294 0 32.3494
      vertex 39.5865 0 32.0555
    endloop
  endfacet
  facet normal 0.634381 1.62338e-18 0.773021
    outer loop
      vertex 39.7979 3 31.7979
      vertex 40.0555 0 31.5865
      vertex 40.0555 3 31.5865
    endloop
  endfacet
  facet normal 0.634381 1.62338e-18 0.773021
    outer loop
      vertex 40.0555 0 31.5865
      vertex 39.7979 3 31.7979
      vertex 39.7979 0 31.7979
    endloop
  endfacet
  facet normal -0.0981075 3.46463e-19 0.995176
    outer loop
      vertex 41 3 31.3
      vertex 41.3317 0 31.3327
      vertex 41.3317 3 31.3327
    endloop
  endfacet
  facet normal -0.0981075 3.46463e-19 0.995176
    outer loop
      vertex 41.3317 0 31.3327
      vertex 41 3 31.3
      vertex 41 0 31.3
    endloop
  endfacet
  facet normal -0.290182 -1.45731e-18 0.956971
    outer loop
      vertex 41.3317 3 31.3327
      vertex 41.6506 0 31.4294
      vertex 41.6506 3 31.4294
    endloop
  endfacet
  facet normal -0.290182 -1.45731e-18 0.956971
    outer loop
      vertex 41.6506 0 31.4294
      vertex 41.3317 3 31.3327
      vertex 41.3317 0 31.3327
    endloop
  endfacet
  facet normal -0.634381 -1.62338e-18 0.773021
    outer loop
      vertex 41.9445 3 31.5865
      vertex 42.2021 0 31.7979
      vertex 42.2021 3 31.7979
    endloop
  endfacet
  facet normal -0.634381 -1.62338e-18 0.773021
    outer loop
      vertex 42.2021 0 31.7979
      vertex 41.9445 3 31.5865
      vertex 41.9445 0 31.5865
    endloop
  endfacet
  facet normal -0.881912 0 0.471413
    outer loop
      vertex 42.4135 0 32.0555
      vertex 42.5706 3 32.3494
      vertex 42.4135 3 32.0555
    endloop
  endfacet
  facet normal -0.881912 0 0.471413
    outer loop
      vertex 42.5706 3 32.3494
      vertex 42.4135 0 32.0555
      vertex 42.5706 0 32.3494
    endloop
  endfacet
  facet normal -0.956971 0 0.290182
    outer loop
      vertex 42.5706 0 32.3494
      vertex 42.6673 3 32.6683
      vertex 42.5706 3 32.3494
    endloop
  endfacet
  facet normal -0.956971 0 0.290182
    outer loop
      vertex 42.6673 3 32.6683
      vertex 42.5706 0 32.3494
      vertex 42.6673 0 32.6683
    endloop
  endfacet
  facet normal 0.471413 2.46376e-18 0.881912
    outer loop
      vertex 40.0555 3 31.5865
      vertex 40.3494 0 31.4294
      vertex 40.3494 3 31.4294
    endloop
  endfacet
  facet normal 0.471413 2.46376e-18 0.881912
    outer loop
      vertex 40.3494 0 31.4294
      vertex 40.0555 3 31.5865
      vertex 40.0555 0 31.5865
    endloop
  endfacet
  facet normal -0.773021 0 0.634381
    outer loop
      vertex 42.2021 0 31.7979
      vertex 42.4135 3 32.0555
      vertex 42.2021 3 31.7979
    endloop
  endfacet
  facet normal -0.773021 0 0.634381
    outer loop
      vertex 42.4135 3 32.0555
      vertex 42.2021 0 31.7979
      vertex 42.4135 0 32.0555
    endloop
  endfacet
  facet normal 0.290182 1.45731e-18 0.956971
    outer loop
      vertex 40.3494 3 31.4294
      vertex 40.6683 0 31.3327
      vertex 40.6683 3 31.3327
    endloop
  endfacet
  facet normal 0.290182 1.45731e-18 0.956971
    outer loop
      vertex 40.6683 0 31.3327
      vertex 40.3494 3 31.4294
      vertex 40.3494 0 31.4294
    endloop
  endfacet
  facet normal 0.0981075 -3.46463e-19 0.995176
    outer loop
      vertex 40.6683 3 31.3327
      vertex 41 0 31.3
      vertex 41 3 31.3
    endloop
  endfacet
  facet normal 0.0981075 -3.46463e-19 0.995176
    outer loop
      vertex 41 0 31.3
      vertex 40.6683 3 31.3327
      vertex 40.6683 0 31.3327
    endloop
  endfacet
  facet normal 0 0 -1
    outer loop
      vertex -34 80 56
      vertex -31 140 56
      vertex -31 80 56
    endloop
  endfacet
  facet normal -0 0 -1
    outer loop
      vertex -31 140 56
      vertex -34 80 56
      vertex -34 140 56
    endloop
  endfacet
  facet normal 0 -1 0
    outer loop
      vertex -34 140 21
      vertex -31 140 56
      vertex -34 140 56
    endloop
  endfacet
  facet normal 0 -1 -0
    outer loop
      vertex -31 140 56
      vertex -34 140 21
      vertex -31 140 21
    endloop
  endfacet
  facet normal -0 0 1
    outer loop
      vertex -34 140 21
      vertex -31 80 21
      vertex -31 140 21
    endloop
  endfacet
  facet normal 0 0 1
    outer loop
      vertex -31 80 21
      vertex -34 140 21
      vertex -34 80 21
    endloop
  endfacet
  facet normal 0 1 -0
    outer loop
      vertex -31 80 21
      vertex -34 80 56
      vertex -31 80 56
    endloop
  endfacet
  facet normal 0 1 0
    outer loop
      vertex -34 80 56
      vertex -31 80 21
      vertex -34 80 21
    endloop
  endfacet
endsolid OpenSCAD_Model
