solid OpenSCAD_Model
  facet normal -1 0 0
    outer loop
      vertex -28 96.975 61
      vertex -28 97 95
      vertex -28 97 61
    endloop
  endfacet
  facet normal -1 -0 0
    outer loop
      vertex -28 97 95
      vertex -28 96.975 61
      vertex -28 96.975 95
    endloop
  endfacet
  facet normal 0 0 1
    outer loop
      vertex 28 97 95
      vertex -28 97 95
      vertex 28 96.975 95
    endloop
  endfacet
  facet normal 0 0 1
    outer loop
      vertex -28 96.975 95
      vertex 28 96.975 95
      vertex -28 97 95
    endloop
  endfacet
  facet normal 0 0 1
    outer loop
      vertex 28 96.975 95
      vertex -28 96.975 95
      vertex 49.6409 67 95
    endloop
  endfacet
  facet normal 0 0 1
    outer loop
      vertex 49.6409 67 95
      vertex -28 96.975 95
      vertex -49.6409 67 95
    endloop
  endfacet
  facet normal 1 -0 0
    outer loop
      vertex 28 96.975 95
      vertex 28 97 61
      vertex 28 97 95
    endloop
  endfacet
  facet normal 1 0 0
    outer loop
      vertex 28 97 61
      vertex 28 96.975 95
      vertex 28 96.975 61
    endloop
  endfacet
  facet normal 0 1 -0
    outer loop
      vertex 28 97 61
      vertex -28 97 95
      vertex 28 97 95
    endloop
  endfacet
  facet normal 0 1 0
    outer loop
      vertex -28 97 95
      vertex 28 97 61
      vertex -28 97 61
    endloop
  endfacet
  facet normal 0 0 -1
    outer loop
      vertex 28 96.975 61
      vertex -28 96.975 61
      vertex 28 97 61
    endloop
  endfacet
  facet normal 0 0 -1
    outer loop
      vertex 49.6409 67 61
      vertex -28 96.975 61
      vertex 28 96.975 61
    endloop
  endfacet
  facet normal 0 -0 -1
    outer loop
      vertex -28 96.975 61
      vertex 49.6409 67 61
      vertex -49.6409 67 61
    endloop
  endfacet
  facet normal -0 0 -1
    outer loop
      vertex 28 97 61
      vertex -28 96.975 61
      vertex -28 97 61
    endloop
  endfacet
  facet normal -0.810778 0.585353 -1.26302e-17
    outer loop
      vertex -49.6409 67 61
      vertex -28 96.975 95
      vertex -28 96.975 61
    endloop
  endfacet
  facet normal -0.810778 0.585353 -1.26302e-17
    outer loop
      vertex -28 96.975 95
      vertex -49.6409 67 61
      vertex -49.6409 67 95
    endloop
  endfacet
  facet normal 0.810778 0.585353 1.26302e-17
    outer loop
      vertex 49.6409 67 95
      vertex 28 96.975 61
      vertex 28 96.975 95
    endloop
  endfacet
  facet normal 0.810778 0.585353 1.26302e-17
    outer loop
      vertex 28 96.975 61
      vertex 49.6409 67 95
      vertex 49.6409 67 61
    endloop
  endfacet
  facet normal 0 -1 0
    outer loop
      vertex -57 -67 142
      vertex -55 -67 126
      vertex 57 -67 142
    endloop
  endfacet
  facet normal 0 -1 0
    outer loop
      vertex -57 -67 142
      vertex -55 -67 16
      vertex -55 -67 126
    endloop
  endfacet
  facet normal 0 -1 -0
    outer loop
      vertex -55 -67 16
      vertex -57 -67 0
      vertex 55 -67 16
    endloop
  endfacet
  facet normal 0 -1 0
    outer loop
      vertex -57 -67 0
      vertex -55 -67 16
      vertex -57 -67 142
    endloop
  endfacet
  facet normal 0 -1 0
    outer loop
      vertex 55 -67 126
      vertex 57 -67 142
      vertex -55 -67 126
    endloop
  endfacet
  facet normal 0 -1 0
    outer loop
      vertex 55 -67 16
      vertex 57 -67 142
      vertex 55 -67 126
    endloop
  endfacet
  facet normal 0 -1 0
    outer loop
      vertex 55 -67 16
      vertex 57 -67 0
      vertex 57 -67 142
    endloop
  endfacet
  facet normal 0 -1 0
    outer loop
      vertex 57 -67 0
      vertex 55 -67 16
      vertex -57 -67 0
    endloop
  endfacet
  facet normal 0.104518 -0.994523 0
    outer loop
      vertex 57 -67 0
      vertex 59.0791 -66.7815 142
      vertex 57 -67 142
    endloop
  endfacet
  facet normal 0.104518 -0.994523 0
    outer loop
      vertex 59.0791 -66.7815 142
      vertex 57 -67 0
      vertex 59.0791 -66.7815 0
    endloop
  endfacet
  facet normal 0.309001 -0.951062 0
    outer loop
      vertex 59.0791 -66.7815 0
      vertex 61.0674 -66.1355 142
      vertex 59.0791 -66.7815 142
    endloop
  endfacet
  facet normal 0.309001 -0.951062 0
    outer loop
      vertex 61.0674 -66.1355 142
      vertex 59.0791 -66.7815 0
      vertex 61.0674 -66.1355 0
    endloop
  endfacet
  facet normal 0 0 1
    outer loop
      vertex 57 67 142
      vertex 67 57 142
      vertex 66.7815 59.0791 142
    endloop
  endfacet
  facet normal 0 0 1
    outer loop
      vertex 67 57 142
      vertex 57 67 142
      vertex 67 -57 142
    endloop
  endfacet
  facet normal 0 0 1
    outer loop
      vertex 57 67 142
      vertex 66.7815 59.0791 142
      vertex 66.1355 61.0674 142
    endloop
  endfacet
  facet normal 0 0 1
    outer loop
      vertex 67 -57 142
      vertex 57 67 142
      vertex 57 -67 142
    endloop
  endfacet
  facet normal 0 0 1
    outer loop
      vertex 57 67 142
      vertex 66.1355 61.0674 142
      vertex 65.0902 62.8779 142
    endloop
  endfacet
  facet normal 0 0 1
    outer loop
      vertex 67 -57 142
      vertex 57 -67 142
      vertex 66.5106 -60.0902 142
    endloop
  endfacet
  facet normal 0 0 1
    outer loop
      vertex 57 67 142
      vertex 65.0902 62.8779 142
      vertex 63.6913 64.4314 142
    endloop
  endfacet
  facet normal 0 0 1
    outer loop
      vertex 66.5106 -60.0902 142
      vertex 57 -67 142
      vertex 65.6602 -62 142
    endloop
  endfacet
  facet normal 0 0 1
    outer loop
      vertex 57 67 142
      vertex 63.6913 64.4314 142
      vertex 62 65.6602 142
    endloop
  endfacet
  facet normal 0 0 1
    outer loop
      vertex 65.6602 -62 142
      vertex 57 -67 142
      vertex 64.4314 -63.6913 142
    endloop
  endfacet
  facet normal 0 0 1
    outer loop
      vertex 57 67 142
      vertex 62 65.6602 142
      vertex 60.0902 66.5106 142
    endloop
  endfacet
  facet normal 0 0 1
    outer loop
      vertex 64.4314 -63.6913 142
      vertex 57 -67 142
      vertex 62.8779 -65.0902 142
    endloop
  endfacet
  facet normal 0 0 1
    outer loop
      vertex 62.8779 -65.0902 142
      vertex 57 -67 142
      vertex 61.0674 -66.1355 142
    endloop
  endfacet
  facet normal 0 0 1
    outer loop
      vertex 61.0674 -66.1355 142
      vertex 57 -67 142
      vertex 59.0791 -66.7815 142
    endloop
  endfacet
  facet normal -0 0 1
    outer loop
      vertex -57 67 142
      vertex 57 -67 142
      vertex 57 67 142
    endloop
  endfacet
  facet normal 0 0 1
    outer loop
      vertex -57 67 142
      vertex -57 -67 142
      vertex 57 -67 142
    endloop
  endfacet
  facet normal 0 0 1
    outer loop
      vertex -67 57 142
      vertex -57 67 142
      vertex -59.0791 66.7815 142
    endloop
  endfacet
  facet normal 0 0 1
    outer loop
      vertex -57 67 142
      vertex -67 57 142
      vertex -57 -67 142
    endloop
  endfacet
  facet normal 0 0 1
    outer loop
      vertex -67 57 142
      vertex -59.0791 66.7815 142
      vertex -61.0674 66.1355 142
    endloop
  endfacet
  facet normal 0 0 1
    outer loop
      vertex -57 -67 142
      vertex -67 57 142
      vertex -67 -57 142
    endloop
  endfacet
  facet normal 0 0 1
    outer loop
      vertex -67 57 142
      vertex -61.0674 66.1355 142
      vertex -62.8779 65.0902 142
    endloop
  endfacet
  facet normal 0 0 1
    outer loop
      vertex -57 -67 142
      vertex -67 -57 142
      vertex -60.0902 -66.5106 142
    endloop
  endfacet
  facet normal 0 0 1
    outer loop
      vertex -67 57 142
      vertex -62.8779 65.0902 142
      vertex -64.4314 63.6913 142
    endloop
  endfacet
  facet normal 0 0 1
    outer loop
      vertex -60.0902 -66.5106 142
      vertex -67 -57 142
      vertex -62 -65.6602 142
    endloop
  endfacet
  facet normal 0 0 1
    outer loop
      vertex -67 57 142
      vertex -64.4314 63.6913 142
      vertex -65.6602 62 142
    endloop
  endfacet
  facet normal 0 0 1
    outer loop
      vertex -62 -65.6602 142
      vertex -67 -57 142
      vertex -63.6913 -64.4314 142
    endloop
  endfacet
  facet normal 0 0 1
    outer loop
      vertex -67 57 142
      vertex -65.6602 62 142
      vertex -66.5106 60.0902 142
    endloop
  endfacet
  facet normal 0 0 1
    outer loop
      vertex -63.6913 -64.4314 142
      vertex -67 -57 142
      vertex -65.0902 -62.8779 142
    endloop
  endfacet
  facet normal 0 0 1
    outer loop
      vertex -65.0902 -62.8779 142
      vertex -67 -57 142
      vertex -66.1355 -61.0674 142
    endloop
  endfacet
  facet normal 0 0 1
    outer loop
      vertex -66.1355 -61.0674 142
      vertex -67 -57 142
      vertex -66.7815 -59.0791 142
    endloop
  endfacet
  facet normal -0.104518 0.994523 0
    outer loop
      vertex -57 67 0
      vertex -59.0791 66.7815 142
      vertex -57 67 142
    endloop
  endfacet
  facet normal -0.104518 0.994523 0
    outer loop
      vertex -59.0791 66.7815 142
      vertex -57 67 0
      vertex -59.0791 66.7815 0
    endloop
  endfacet
  facet normal -0.743116 -0.669163 4.98905e-19
    outer loop
      vertex -63.6913 -64.4314 0
      vertex -65.0902 -62.8779 142
      vertex -65.0902 -62.8779 0
    endloop
  endfacet
  facet normal -0.743116 -0.669163 4.98905e-19
    outer loop
      vertex -65.0902 -62.8779 142
      vertex -63.6913 -64.4314 0
      vertex -63.6913 -64.4314 142
    endloop
  endfacet
  facet normal 0.156422 0.98769 -0
    outer loop
      vertex 60.0902 66.5106 0
      vertex 57 67 142
      vertex 60.0902 66.5106 142
    endloop
  endfacet
  facet normal 0.156422 0.98769 0
    outer loop
      vertex 57 67 142
      vertex 60.0902 66.5106 0
      vertex 57 67 0
    endloop
  endfacet
  facet normal 0.743116 0.669163 4.98905e-19
    outer loop
      vertex 65.0902 62.8779 142
      vertex 63.6913 64.4314 0
      vertex 63.6913 64.4314 142
    endloop
  endfacet
  facet normal 0.743116 0.669163 4.98905e-19
    outer loop
      vertex 63.6913 64.4314 0
      vertex 65.0902 62.8779 142
      vertex 65.0902 62.8779 0
    endloop
  endfacet
  facet normal -0.98769 0.156422 1.21531e-19
    outer loop
      vertex -67 57 0
      vertex -66.5106 60.0902 142
      vertex -66.5106 60.0902 0
    endloop
  endfacet
  facet normal -0.98769 0.156422 1.21531e-19
    outer loop
      vertex -66.5106 60.0902 142
      vertex -67 57 0
      vertex -67 57 142
    endloop
  endfacet
  facet normal -0.866024 -0.500003 -1.81514e-19
    outer loop
      vertex -65.0902 -62.8779 0
      vertex -66.1355 -61.0674 142
      vertex -66.1355 -61.0674 0
    endloop
  endfacet
  facet normal -0.866024 -0.500003 -1.81514e-19
    outer loop
      vertex -66.1355 -61.0674 142
      vertex -65.0902 -62.8779 0
      vertex -65.0902 -62.8779 142
    endloop
  endfacet
  facet normal 0 1 0
    outer loop
      vertex 57 67 142
      vertex 49.6409 67 95
      vertex -57 67 142
    endloop
  endfacet
  facet normal 0 1 0
    outer loop
      vertex 57 67 142
      vertex 49.6409 67 61
      vertex 49.6409 67 95
    endloop
  endfacet
  facet normal 0 1 0
    outer loop
      vertex 49.6409 67 61
      vertex 57 67 0
      vertex -49.6409 67 61
    endloop
  endfacet
  facet normal 0 1 -0
    outer loop
      vertex 57 67 0
      vertex 49.6409 67 61
      vertex 57 67 142
    endloop
  endfacet
  facet normal 0 1 -0
    outer loop
      vertex -49.6409 67 95
      vertex -57 67 142
      vertex 49.6409 67 95
    endloop
  endfacet
  facet normal 0 1 -0
    outer loop
      vertex -49.6409 67 61
      vertex -57 67 142
      vertex -49.6409 67 95
    endloop
  endfacet
  facet normal 0 1 0
    outer loop
      vertex -49.6409 67 61
      vertex -57 67 0
      vertex -57 67 142
    endloop
  endfacet
  facet normal 0 1 0
    outer loop
      vertex -57 67 0
      vertex -49.6409 67 61
      vertex 57 67 0
    endloop
  endfacet
  facet normal 1 -0 0
    outer loop
      vertex 67 -57 142
      vertex 67 57 0
      vertex 67 57 142
    endloop
  endfacet
  facet normal 1 0 0
    outer loop
      vertex 67 57 0
      vertex 67 -57 142
      vertex 67 -57 0
    endloop
  endfacet
  facet normal -1 0 0
    outer loop
      vertex -67 -57 0
      vertex -67 57 142
      vertex -67 57 0
    endloop
  endfacet
  facet normal -1 -0 0
    outer loop
      vertex -67 57 142
      vertex -67 -57 0
      vertex -67 -57 142
    endloop
  endfacet
  facet normal -0.406777 -0.913527 0
    outer loop
      vertex -62 -65.6602 0
      vertex -60.0902 -66.5106 142
      vertex -62 -65.6602 142
    endloop
  endfacet
  facet normal -0.406777 -0.913527 -0
    outer loop
      vertex -60.0902 -66.5106 142
      vertex -62 -65.6602 0
      vertex -60.0902 -66.5106 0
    endloop
  endfacet
  facet normal -0.669163 0.743116 0
    outer loop
      vertex -62.8779 65.0902 0
      vertex -64.4314 63.6913 142
      vertex -62.8779 65.0902 142
    endloop
  endfacet
  facet normal -0.669163 0.743116 0
    outer loop
      vertex -64.4314 63.6913 142
      vertex -62.8779 65.0902 0
      vertex -64.4314 63.6913 0
    endloop
  endfacet
  facet normal -0.994523 -0.104518 8.07149e-20
    outer loop
      vertex -66.7815 -59.0791 0
      vertex -67 -57 142
      vertex -67 -57 0
    endloop
  endfacet
  facet normal -0.994523 -0.104518 8.07149e-20
    outer loop
      vertex -67 -57 142
      vertex -66.7815 -59.0791 0
      vertex -66.7815 -59.0791 142
    endloop
  endfacet
  facet normal 0 0 -1
    outer loop
      vertex 57 67 0
      vertex 67 57 0
      vertex 67 -57 0
    endloop
  endfacet
  facet normal 0 0 -1
    outer loop
      vertex 57 -67 0
      vertex 67 -57 0
      vertex 66.5106 -60.0902 0
    endloop
  endfacet
  facet normal 0 0 -1
    outer loop
      vertex 57 67 0
      vertex 67 -57 0
      vertex 57 -67 0
    endloop
  endfacet
  facet normal 0 0 -1
    outer loop
      vertex 57 -67 0
      vertex 66.5106 -60.0902 0
      vertex 65.6602 -62 0
    endloop
  endfacet
  facet normal 0 0 -1
    outer loop
      vertex 67 57 0
      vertex 57 67 0
      vertex 66.7815 59.0791 0
    endloop
  endfacet
  facet normal 0 0 -1
    outer loop
      vertex 57 -67 0
      vertex 65.6602 -62 0
      vertex 64.4314 -63.6913 0
    endloop
  endfacet
  facet normal 0 0 -1
    outer loop
      vertex 66.7815 59.0791 0
      vertex 57 67 0
      vertex 66.1355 61.0674 0
    endloop
  endfacet
  facet normal 0 0 -1
    outer loop
      vertex 57 -67 0
      vertex 64.4314 -63.6913 0
      vertex 62.8779 -65.0902 0
    endloop
  endfacet
  facet normal 0 0 -1
    outer loop
      vertex 66.1355 61.0674 0
      vertex 57 67 0
      vertex 65.0902 62.8779 0
    endloop
  endfacet
  facet normal 0 0 -1
    outer loop
      vertex 57 -67 0
      vertex 62.8779 -65.0902 0
      vertex 61.0674 -66.1355 0
    endloop
  endfacet
  facet normal 0 0 -1
    outer loop
      vertex 65.0902 62.8779 0
      vertex 57 67 0
      vertex 63.6913 64.4314 0
    endloop
  endfacet
  facet normal 0 0 -1
    outer loop
      vertex 57 -67 0
      vertex 61.0674 -66.1355 0
      vertex 59.0791 -66.7815 0
    endloop
  endfacet
  facet normal 0 0 -1
    outer loop
      vertex 63.6913 64.4314 0
      vertex 57 67 0
      vertex 62 65.6602 0
    endloop
  endfacet
  facet normal 0 0 -1
    outer loop
      vertex 62 65.6602 0
      vertex 57 67 0
      vertex 60.0902 66.5106 0
    endloop
  endfacet
  facet normal 0 0 -1
    outer loop
      vertex -57 -67 0
      vertex 57 67 0
      vertex 57 -67 0
    endloop
  endfacet
  facet normal 0 0 -1
    outer loop
      vertex -57 -67 0
      vertex -57 67 0
      vertex 57 67 0
    endloop
  endfacet
  facet normal 0 0 -1
    outer loop
      vertex -67 57 0
      vertex -57 67 0
      vertex -57 -67 0
    endloop
  endfacet
  facet normal 0 0 -1
    outer loop
      vertex -67 -57 0
      vertex -57 -67 0
      vertex -60.0902 -66.5106 0
    endloop
  endfacet
  facet normal 0 0 -1
    outer loop
      vertex -67 57 0
      vertex -57 -67 0
      vertex -67 -57 0
    endloop
  endfacet
  facet normal 0 0 -1
    outer loop
      vertex -67 -57 0
      vertex -60.0902 -66.5106 0
      vertex -62 -65.6602 0
    endloop
  endfacet
  facet normal 0 0 -1
    outer loop
      vertex -57 67 0
      vertex -67 57 0
      vertex -59.0791 66.7815 0
    endloop
  endfacet
  facet normal 0 0 -1
    outer loop
      vertex -67 -57 0
      vertex -62 -65.6602 0
      vertex -63.6913 -64.4314 0
    endloop
  endfacet
  facet normal 0 0 -1
    outer loop
      vertex -59.0791 66.7815 0
      vertex -67 57 0
      vertex -61.0674 66.1355 0
    endloop
  endfacet
  facet normal 0 0 -1
    outer loop
      vertex -67 -57 0
      vertex -63.6913 -64.4314 0
      vertex -65.0902 -62.8779 0
    endloop
  endfacet
  facet normal 0 0 -1
    outer loop
      vertex -61.0674 66.1355 0
      vertex -67 57 0
      vertex -62.8779 65.0902 0
    endloop
  endfacet
  facet normal 0 0 -1
    outer loop
      vertex -67 -57 0
      vertex -65.0902 -62.8779 0
      vertex -66.1355 -61.0674 0
    endloop
  endfacet
  facet normal 0 0 -1
    outer loop
      vertex -62.8779 65.0902 0
      vertex -67 57 0
      vertex -64.4314 63.6913 0
    endloop
  endfacet
  facet normal 0 0 -1
    outer loop
      vertex -67 -57 0
      vertex -66.1355 -61.0674 0
      vertex -66.7815 -59.0791 0
    endloop
  endfacet
  facet normal 0 0 -1
    outer loop
      vertex -64.4314 63.6913 0
      vertex -67 57 0
      vertex -65.6602 62 0
    endloop
  endfacet
  facet normal 0 0 -1
    outer loop
      vertex -65.6602 62 0
      vertex -67 57 0
      vertex -66.5106 60.0902 0
    endloop
  endfacet
  facet normal -0.156422 -0.98769 0
    outer loop
      vertex -60.0902 -66.5106 0
      vertex -57 -67 142
      vertex -60.0902 -66.5106 142
    endloop
  endfacet
  facet normal -0.156422 -0.98769 -0
    outer loop
      vertex -57 -67 142
      vertex -60.0902 -66.5106 0
      vertex -57 -67 0
    endloop
  endfacet
  facet normal 0.406777 0.913527 -0
    outer loop
      vertex 62 65.6602 0
      vertex 60.0902 66.5106 142
      vertex 62 65.6602 142
    endloop
  endfacet
  facet normal 0.406777 0.913527 0
    outer loop
      vertex 60.0902 66.5106 142
      vertex 62 65.6602 0
      vertex 60.0902 66.5106 0
    endloop
  endfacet
  facet normal 0.587785 0.809017 -0
    outer loop
      vertex 63.6913 64.4314 0
      vertex 62 65.6602 142
      vertex 63.6913 64.4314 142
    endloop
  endfacet
  facet normal 0.587785 0.809017 0
    outer loop
      vertex 62 65.6602 142
      vertex 63.6913 64.4314 0
      vertex 62 65.6602 0
    endloop
  endfacet
  facet normal -0.587785 -0.809017 0
    outer loop
      vertex -63.6913 -64.4314 0
      vertex -62 -65.6602 142
      vertex -63.6913 -64.4314 142
    endloop
  endfacet
  facet normal -0.587785 -0.809017 -0
    outer loop
      vertex -62 -65.6602 142
      vertex -63.6913 -64.4314 0
      vertex -62 -65.6602 0
    endloop
  endfacet
  facet normal -0.951062 -0.309001 1.89912e-19
    outer loop
      vertex -66.1355 -61.0674 0
      vertex -66.7815 -59.0791 142
      vertex -66.7815 -59.0791 0
    endloop
  endfacet
  facet normal -0.951062 -0.309001 1.89912e-19
    outer loop
      vertex -66.7815 -59.0791 142
      vertex -66.1355 -61.0674 0
      vertex -66.1355 -61.0674 142
    endloop
  endfacet
  facet normal 0.866024 0.500003 -1.81514e-19
    outer loop
      vertex 66.1355 61.0674 142
      vertex 65.0902 62.8779 0
      vertex 65.0902 62.8779 142
    endloop
  endfacet
  facet normal 0.866024 0.500003 -1.81514e-19
    outer loop
      vertex 65.0902 62.8779 0
      vertex 66.1355 61.0674 142
      vertex 66.1355 61.0674 0
    endloop
  endfacet
  facet normal 0.913527 -0.406777 3.36003e-20
    outer loop
      vertex 65.6602 -62 142
      vertex 66.5106 -60.0902 0
      vertex 66.5106 -60.0902 142
    endloop
  endfacet
  facet normal 0.913527 -0.406777 3.36003e-20
    outer loop
      vertex 66.5106 -60.0902 0
      vertex 65.6602 -62 142
      vertex 65.6602 -62 0
    endloop
  endfacet
  facet normal 0.98769 -0.156422 1.21531e-19
    outer loop
      vertex 66.5106 -60.0902 142
      vertex 67 -57 0
      vertex 67 -57 142
    endloop
  endfacet
  facet normal 0.98769 -0.156422 1.21531e-19
    outer loop
      vertex 67 -57 0
      vertex 66.5106 -60.0902 142
      vertex 66.5106 -60.0902 0
    endloop
  endfacet
  facet normal 0.500003 -0.866024 0
    outer loop
      vertex 61.0674 -66.1355 0
      vertex 62.8779 -65.0902 142
      vertex 61.0674 -66.1355 142
    endloop
  endfacet
  facet normal 0.500003 -0.866024 0
    outer loop
      vertex 62.8779 -65.0902 142
      vertex 61.0674 -66.1355 0
      vertex 62.8779 -65.0902 0
    endloop
  endfacet
  facet normal -0.500003 0.866024 0
    outer loop
      vertex -61.0674 66.1355 0
      vertex -62.8779 65.0902 142
      vertex -61.0674 66.1355 142
    endloop
  endfacet
  facet normal -0.500003 0.866024 0
    outer loop
      vertex -62.8779 65.0902 142
      vertex -61.0674 66.1355 0
      vertex -62.8779 65.0902 0
    endloop
  endfacet
  facet normal -0.309001 0.951062 0
    outer loop
      vertex -59.0791 66.7815 0
      vertex -61.0674 66.1355 142
      vertex -59.0791 66.7815 142
    endloop
  endfacet
  facet normal -0.309001 0.951062 0
    outer loop
      vertex -61.0674 66.1355 142
      vertex -59.0791 66.7815 0
      vertex -61.0674 66.1355 0
    endloop
  endfacet
  facet normal -0.913527 0.406777 3.36003e-20
    outer loop
      vertex -66.5106 60.0902 0
      vertex -65.6602 62 142
      vertex -65.6602 62 0
    endloop
  endfacet
  facet normal -0.913527 0.406777 3.36003e-20
    outer loop
      vertex -65.6602 62 142
      vertex -66.5106 60.0902 0
      vertex -66.5106 60.0902 142
    endloop
  endfacet
  facet normal -0.809017 0.587785 5.11313e-19
    outer loop
      vertex -65.6602 62 0
      vertex -64.4314 63.6913 142
      vertex -64.4314 63.6913 0
    endloop
  endfacet
  facet normal -0.809017 0.587785 5.11313e-19
    outer loop
      vertex -64.4314 63.6913 142
      vertex -65.6602 62 0
      vertex -65.6602 62 142
    endloop
  endfacet
  facet normal 0.669163 -0.743116 0
    outer loop
      vertex 62.8779 -65.0902 0
      vertex 64.4314 -63.6913 142
      vertex 62.8779 -65.0902 142
    endloop
  endfacet
  facet normal 0.669163 -0.743116 0
    outer loop
      vertex 64.4314 -63.6913 142
      vertex 62.8779 -65.0902 0
      vertex 64.4314 -63.6913 0
    endloop
  endfacet
  facet normal 0.809017 -0.587785 5.11313e-19
    outer loop
      vertex 64.4314 -63.6913 142
      vertex 65.6602 -62 0
      vertex 65.6602 -62 142
    endloop
  endfacet
  facet normal 0.809017 -0.587785 5.11313e-19
    outer loop
      vertex 65.6602 -62 0
      vertex 64.4314 -63.6913 142
      vertex 64.4314 -63.6913 0
    endloop
  endfacet
  facet normal 0.951062 0.309001 1.89912e-19
    outer loop
      vertex 66.7815 59.0791 142
      vertex 66.1355 61.0674 0
      vertex 66.1355 61.0674 142
    endloop
  endfacet
  facet normal 0.951062 0.309001 1.89912e-19
    outer loop
      vertex 66.1355 61.0674 0
      vertex 66.7815 59.0791 142
      vertex 66.7815 59.0791 0
    endloop
  endfacet
  facet normal 0.994523 0.104518 8.07149e-20
    outer loop
      vertex 67 57 142
      vertex 66.7815 59.0791 0
      vertex 66.7815 59.0791 142
    endloop
  endfacet
  facet normal 0.994523 0.104518 8.07149e-20
    outer loop
      vertex 66.7815 59.0791 0
      vertex 67 57 142
      vertex 67 57 0
    endloop
  endfacet
  facet normal -1 0 0
    outer loop
      vertex -55 -97 16
      vertex -55 -67 126
      vertex -55 -67 16
    endloop
  endfacet
  facet normal -1 -0 0
    outer loop
      vertex -55 -67 126
      vertex -55 -97 16
      vertex -55 -97 126
    endloop
  endfacet
  facet normal -0 0 1
    outer loop
      vertex -55 -67 126
      vertex 55 -97 126
      vertex 55 -67 126
    endloop
  endfacet
  facet normal 0 0 1
    outer loop
      vertex 55 -97 126
      vertex -55 -67 126
      vertex -55 -97 126
    endloop
  endfacet
  facet normal 1 -0 0
    outer loop
      vertex 55 -97 126
      vertex 55 -67 16
      vertex 55 -67 126
    endloop
  endfacet
  facet normal 1 0 0
    outer loop
      vertex 55 -67 16
      vertex 55 -97 126
      vertex 55 -97 16
    endloop
  endfacet
  facet normal 0 0 -1
    outer loop
      vertex -55 -97 16
      vertex 55 -67 16
      vertex 55 -97 16
    endloop
  endfacet
  facet normal -0 0 -1
    outer loop
      vertex 55 -67 16
      vertex -55 -97 16
      vertex -55 -67 16
    endloop
  endfacet
  facet normal 0 -1 0
    outer loop
      vertex -55 -97 16
      vertex 55 -97 126
      vertex -55 -97 126
    endloop
  endfacet
  facet normal 0 -1 -0
    outer loop
      vertex 55 -97 126
      vertex -55 -97 16
      vertex 55 -97 16
    endloop
  endfacet
endsolid OpenSCAD_Model
